<?xml version="1.0" encoding="UTF-8"?>
<!DOCTYPE svg PUBLIC "-//W3C//DTD SVG 1.1//EN" "http://www.w3.org/Graphics/SVG/1.1/DTD/svg11.dtd">
<svg xmlns="http://www.w3.org/2000/svg" version="1.1" width="1668px" height="2388px" style="shape-rendering:geometricPrecision; text-rendering:geometricPrecision; image-rendering:optimizeQuality; fill-rule:evenodd; clip-rule:evenodd" xmlns:xlink="http://www.w3.org/1999/xlink">
<g><path style="opacity:1" fill="#071ff9" d="M 1047.5,522.5 C 1049.12,525.455 1051.12,528.122 1053.5,530.5C 1173.84,720.508 1294.17,910.508 1414.5,1100.5C 1415.08,1102.75 1416.41,1104.42 1418.5,1105.5C 1419.83,1106.83 1419.83,1108.17 1418.5,1109.5C 1416.11,1110.89 1414.44,1112.89 1413.5,1115.5C 1293.51,1305.16 1173.51,1494.83 1053.5,1684.5C 1051.45,1686.55 1049.79,1688.88 1048.5,1691.5C 1046.5,1694.17 1044.5,1694.17 1042.5,1691.5C 1041.21,1688.88 1039.55,1686.55 1037.5,1684.5C 1016.19,1649.88 994.354,1615.55 972,1581.5C 969.78,1578.46 968.28,1575.13 967.5,1571.5C 968.164,1569.51 969.331,1567.85 971,1566.5C 996.093,1605.1 1020.59,1644.1 1044.5,1683.5C 1045.17,1684.83 1045.83,1684.83 1046.5,1683.5C 1166.71,1490.97 1287.71,1298.97 1409.5,1107.5C 1287.92,915.335 1166.58,723.002 1045.5,530.5C 1002.67,598.833 959.833,667.167 917,735.5C 914.429,733.024 912.929,730.024 912.5,726.5C 954.663,661.514 996.33,596.18 1037.5,530.5C 1039.88,528.122 1041.88,525.455 1043.5,522.5C 1044.83,521.167 1046.17,521.167 1047.5,522.5 Z"/></g>
<g><path style="opacity:0.349" fill="#3d4390" d="M 1047.5,522.5 C 1050.65,524.313 1052.65,526.98 1053.5,530.5C 1051.12,528.122 1049.12,525.455 1047.5,522.5 Z"/></g>
<g><path style="opacity:0.275" fill="#3d448f" d="M 1043.5,522.5 C 1041.88,525.455 1039.88,528.122 1037.5,530.5C 1038.35,526.98 1040.35,524.313 1043.5,522.5 Z"/></g>
<g><path style="opacity:0.991" fill="#000001" d="M 967.5,1571.5 C 966.549,1572.92 966.216,1574.59 966.5,1576.5C 924.594,1642.64 882.427,1708.64 840,1774.5C 835.667,1781.17 831.333,1781.17 827,1774.5C 703.471,1581.43 580.971,1387.77 459.5,1193.5C 580.971,999.235 703.471,805.568 827,612.5C 831.333,605.833 835.667,605.833 840,612.5C 863.942,650.068 888.108,687.402 912.5,724.5C 912.5,725.167 912.5,725.833 912.5,726.5C 912.929,730.024 914.429,733.024 917,735.5C 959.833,667.167 1002.67,598.833 1045.5,530.5C 1166.58,723.002 1287.92,915.335 1409.5,1107.5C 1287.71,1298.97 1166.71,1490.97 1046.5,1683.5C 1045.83,1684.83 1045.17,1684.83 1044.5,1683.5C 1020.59,1644.1 996.093,1605.1 971,1566.5C 969.331,1567.85 968.164,1569.51 967.5,1571.5 Z"/></g>
<g><path style="opacity:1" fill="#0013af" d="M 1039.5,557.5 C 1041.17,557.5 1042.83,557.5 1044.5,557.5C 1044.5,558.833 1044.5,560.167 1044.5,561.5C 1042.83,561.5 1041.17,561.5 1039.5,561.5C 1039.5,560.167 1039.5,558.833 1039.5,557.5 Z"/></g>
<g><path style="opacity:1" fill="#0018df" d="M 1049.5,569.5 C 1056.8,569.602 1058.8,572.769 1055.5,579C 1047.94,579.282 1045.94,576.115 1049.5,569.5 Z"/></g>
<g><path style="opacity:1" fill="#001bfd" d="M 832.5,617.5 C 834.017,617.511 835.184,618.177 836,619.5C 956.265,811.04 1076.76,1002.37 1197.5,1193.5C 1076.17,1385.5 954.834,1577.5 833.5,1769.5C 711.769,1577.77 590.436,1385.77 469.5,1193.5C 590.496,1001.51 711.496,809.51 832.5,617.5 Z"/></g>
<g><path style="opacity:1" fill="#001bf6" d="M 1079.5,721.5 C 1078.5,733.989 1078.17,746.656 1078.5,759.5C 1077.18,768.009 1077.18,776.675 1078.5,785.5C 1079.11,785.376 1079.44,785.043 1079.5,784.5C 1080.17,784.5 1080.5,784.167 1080.5,783.5C 1093.07,773.44 1104.9,762.44 1116,750.5C 1116.48,749.552 1116.65,748.552 1116.5,747.5C 1117.58,744.373 1118.25,741.04 1118.5,737.5C 1118.98,730.488 1119.64,723.488 1120.5,716.5C 1119.45,708.648 1117.62,700.981 1115,693.5C 1114.17,688.467 1114.34,683.467 1115.5,678.5C 1117.37,684.263 1119.53,689.93 1122,695.5C 1125.42,700.668 1128.59,706.002 1131.5,711.5C 1129.31,725.513 1126.98,739.513 1124.5,753.5C 1112.36,769.476 1100.02,785.31 1087.5,801C 1098,797.372 1107.66,792.038 1116.5,785C 1120.79,783.798 1124.29,784.965 1127,788.5C 1132.36,802.92 1138.7,816.92 1146,830.5C 1157.46,847.304 1168.13,864.638 1178,882.5C 1184,891.167 1190,899.833 1196,908.5C 1197.53,914.415 1197.86,920.415 1197,926.5C 1194.19,938.023 1192.35,949.69 1191.5,961.5C 1190.11,973.307 1189.44,985.307 1189.5,997.5C 1188.14,1008.31 1187.47,1019.31 1187.5,1030.5C 1186.51,1036.31 1186.18,1042.31 1186.5,1048.5C 1188.41,1048.78 1190.08,1048.45 1191.5,1047.5C 1203.88,1046.44 1216.22,1044.94 1228.5,1043C 1237.13,1028.06 1248.13,1015.39 1261.5,1005C 1250.84,1022.99 1241.51,1041.65 1233.5,1061C 1231.97,1061.92 1230.3,1062.42 1228.5,1062.5C 1211.06,1058.45 1193.4,1056.45 1175.5,1056.5C 1175.62,1034.81 1176.29,1013.15 1177.5,991.5C 1177.45,971.644 1178.11,951.81 1179.5,932C 1179.17,929.167 1178.83,926.333 1178.5,923.5C 1158.52,882.208 1138.52,840.875 1118.5,799.5C 1102.56,809.935 1089.06,822.935 1078,838.5C 1076.91,869.495 1076.08,900.495 1075.5,931.5C 1074.48,934.974 1073.81,938.64 1073.5,942.5C 1072.71,948.13 1072.37,953.797 1072.5,959.5C 1070.83,959.5 1069.17,959.5 1067.5,959.5C 1065.32,929.191 1064.98,898.857 1066.5,868.5C 1067.9,844.68 1068.57,820.68 1068.5,796.5C 1068.87,754.495 1069.54,712.495 1070.5,670.5C 1072.03,661.712 1072.7,652.712 1072.5,643.5C 1072.47,637.984 1074.64,636.651 1079,639.5C 1079.5,666.831 1079.67,694.165 1079.5,721.5 Z"/></g>
<g><path style="opacity:1" fill="#0018dd" d="M 998.5,655.5 C 999.5,655.5 1000.5,655.5 1001.5,655.5C 1001.73,657.716 1000.89,659.383 999,660.5C 997.212,658.977 997.045,657.31 998.5,655.5 Z"/></g>
<g><path style="opacity:1" fill="#000d68" d="M 1072.5,643.5 C 1072.7,652.712 1072.03,661.712 1070.5,670.5C 1070.24,661.283 1070.9,652.283 1072.5,643.5 Z"/></g>
<g><path style="opacity:1" fill="#000d76" d="M 837.5,679.5 C 837.241,675.932 835.241,674.599 831.5,675.5C 830.833,679.5 832.5,681.167 836.5,680.5C 830.955,682.29 828.955,680.29 830.5,674.5C 836.254,672.292 838.588,673.959 837.5,679.5 Z"/></g>
<g><path style="opacity:1" fill="#040320" d="M 837.5,679.5 C 837.5,680.167 837.167,680.5 836.5,680.5C 832.5,681.167 830.833,679.5 831.5,675.5C 835.241,674.599 837.241,675.932 837.5,679.5 Z"/></g>
<g><path style="opacity:1" fill="#091ce1" d="M 1000.5,685.5 C 1005.51,684.674 1007.84,686.841 1007.5,692C 1005.31,697.368 1002.15,697.868 998,693.5C 997.018,690.225 997.851,687.559 1000.5,685.5 Z"/></g>
<g><path style="opacity:0.2" fill="#3e438d" d="M 1053.5,530.5 C 1096.86,596.39 1139.7,662.723 1182,729.5C 1259.76,852.693 1337.26,976.026 1414.5,1099.5C 1414.5,1099.83 1414.5,1100.17 1414.5,1100.5C 1294.17,910.508 1173.84,720.508 1053.5,530.5 Z"/></g>
<g><path style="opacity:1" fill="#0017d4" d="M 952.5,691.5 C 956.138,690.737 957.638,692.07 957,695.5C 952.415,697.413 950.915,696.079 952.5,691.5 Z"/></g>
<g><path style="opacity:0.341" fill="#3d438f" d="M 1037.5,530.5 C 996.33,596.18 954.663,661.514 912.5,726.5C 912.5,725.833 912.5,725.167 912.5,724.5C 953.412,659.273 995.079,594.606 1037.5,530.5 Z"/></g>
<g><path style="opacity:1" fill="#000d78" d="M 855.5,701.5 C 863.524,700.265 865.524,703.098 861.5,710C 854.144,710.698 852.144,707.865 855.5,701.5 Z"/></g>
<g><path style="opacity:1" fill="#05052f" d="M 856.5,702.5 C 858.167,702.5 859.833,702.5 861.5,702.5C 862.508,707.667 860.675,709.334 856,707.5C 855.36,705.735 855.527,704.068 856.5,702.5 Z"/></g>
<g><path style="opacity:1" fill="#000c57" d="M 1118.5,737.5 C 1118.25,741.04 1117.58,744.373 1116.5,747.5C 1116.16,743.84 1116.83,740.507 1118.5,737.5 Z"/></g>
<g><path style="opacity:1" fill="#0014af" d="M 1153.5,745.5 C 1154.5,745.5 1155.5,745.5 1156.5,745.5C 1156.5,747.167 1156.5,748.833 1156.5,750.5C 1152.72,750.475 1151.72,748.808 1153.5,745.5 Z"/></g>
<g><path style="opacity:0.492" fill="#ffeb00" d="M 1481.5,749.5 C 1486.81,750.241 1488.14,752.741 1485.5,757C 1479.4,757.147 1478.07,754.647 1481.5,749.5 Z"/></g>
<g><path style="opacity:1" fill="#001af0" d="M 1142.5,763.5 C 1150.49,762.998 1152.49,766.165 1148.5,773C 1142,772.963 1140,769.797 1142.5,763.5 Z"/></g>
<g><path style="opacity:1" fill="#040737" d="M 1079.5,721.5 C 1079.17,742.34 1079.5,763.007 1080.5,783.5C 1080.5,784.167 1080.17,784.5 1079.5,784.5C 1078.51,776.35 1078.17,768.017 1078.5,759.5C 1078.17,746.656 1078.5,733.989 1079.5,721.5 Z"/></g>
<g><path style="opacity:1" fill="#0012a5" d="M 1078.5,759.5 C 1078.17,768.017 1078.51,776.35 1079.5,784.5C 1079.44,785.043 1079.11,785.376 1078.5,785.5C 1077.18,776.675 1077.18,768.009 1078.5,759.5 Z"/></g>
<g><path style="opacity:1" fill="#0013b0" d="M 1188.5,810.5 C 1189.83,810.5 1191.17,810.5 1192.5,810.5C 1192.78,812.346 1192.11,813.68 1190.5,814.5C 1188.89,813.68 1188.22,812.346 1188.5,810.5 Z"/></g>
<g><path style="opacity:1" fill="#010110" d="M 884.5,818.5 C 889.486,818.305 891.152,820.472 889.5,825C 884.262,825.594 882.595,823.427 884.5,818.5 Z"/></g>
<g><path style="opacity:1" fill="#0015c4" d="M 1068.5,796.5 C 1068.57,820.68 1067.9,844.68 1066.5,868.5C 1066.47,844.321 1067.14,820.321 1068.5,796.5 Z"/></g>
<g><path style="opacity:1" fill="#040112" d="M 795.5,830.5 C 800.984,830.481 802.65,832.981 800.5,838C 798.888,838.72 797.388,838.554 796,837.5C 795.503,835.19 795.337,832.857 795.5,830.5 Z"/></g>
<g><path style="opacity:1" fill="#03010e" d="M 825.5,842.5 C 828.237,842.401 830.904,842.735 833.5,843.5C 837.665,848.547 837.332,853.38 832.5,858C 823.621,858.091 820.121,853.591 822,844.5C 822.816,843.177 823.983,842.511 825.5,842.5 Z"/></g>
<g><path style="opacity:1" fill="#000e7b" d="M 825.5,842.5 C 826.449,841.848 827.615,841.514 829,841.5C 831.008,841.307 832.508,841.974 833.5,843.5C 830.904,842.735 828.237,842.401 825.5,842.5 Z"/></g>
<g><path style="opacity:1" fill="#010004" d="M 938.5,928.5 C 941.833,932.5 945.5,936.167 949.5,939.5C 950.833,941.167 952.167,942.833 953.5,944.5C 954.833,946.5 956.5,948.167 958.5,949.5C 962.167,953.833 966.167,957.833 970.5,961.5C 975.557,967.559 981.224,972.893 987.5,977.5C 991.519,981.521 995.186,985.854 998.5,990.5C 993.031,995.623 988.365,1001.29 984.5,1007.5C 983.206,1008.29 982.039,1009.29 981,1010.5C 977.224,1016.39 973.724,1022.39 970.5,1028.5C 967.421,1031.65 965.087,1035.32 963.5,1039.5C 960.084,1043.32 957.418,1047.66 955.5,1052.5C 953.674,1054.15 952.34,1056.15 951.5,1058.5C 949.05,1060.63 947.383,1063.3 946.5,1066.5C 943.377,1069.98 941.043,1073.98 939.5,1078.5C 937.287,1083.93 934.787,1089.26 932,1094.5C 931.044,1095.89 929.711,1096.56 928,1096.5C 907.909,1092.95 887.743,1089.78 867.5,1087C 863.541,1087.21 861.874,1085.38 862.5,1081.5C 865.609,1081.74 868.609,1081.4 871.5,1080.5C 886.166,1080.05 900.832,1079.55 915.5,1079C 930.565,1054.35 946.232,1030.18 962.5,1006.5C 965.955,1001.87 969.622,997.373 973.5,993C 972.685,991.02 971.352,989.52 969.5,988.5C 959.167,977.5 948.5,966.833 937.5,956.5C 935.57,952.9 932.903,949.9 929.5,947.5C 919.152,935.976 909.152,924.143 899.5,912C 897.447,911.675 895.447,912.009 893.5,913C 883.744,917.218 874.077,921.385 864.5,925.5C 843.939,932.462 823.606,939.796 803.5,947.5C 799.605,948.462 795.939,949.796 792.5,951.5C 786.88,952.987 781.547,954.987 776.5,957.5C 757.223,964.537 738.056,971.87 719,979.5C 718.5,1010.5 718.333,1041.5 718.5,1072.5C 718.656,1082.4 719.656,1092.06 721.5,1101.5C 721.743,1114.24 722.743,1126.9 724.5,1139.5C 724.444,1144.73 725.111,1149.73 726.5,1154.5C 726.5,1157.5 726.5,1160.5 726.5,1163.5C 726.905,1173 727.572,1182.34 728.5,1191.5C 733.616,1192.81 738.949,1193.47 744.5,1193.5C 749.273,1195.02 754.273,1196.02 759.5,1196.5C 760.167,1196.5 760.833,1196.5 761.5,1196.5C 768.251,1198.32 775.251,1199.32 782.5,1199.5C 783.5,1199.5 784.5,1199.5 785.5,1199.5C 793.949,1201.07 802.616,1201.74 811.5,1201.5C 819.271,1203.16 827.271,1203.82 835.5,1203.5C 837.717,1204.37 840.05,1204.7 842.5,1204.5C 849.989,1205.51 857.656,1206.18 865.5,1206.5C 866.167,1206.5 866.833,1206.5 867.5,1206.5C 900.948,1210.09 934.615,1212.76 968.5,1214.5C 972.982,1215.33 977.649,1215.83 982.5,1216C 983,1216.5 983.5,1217 984,1217.5C 982.933,1230.91 981.1,1244.24 978.5,1257.5C 975.908,1266.85 974.574,1276.52 974.5,1286.5C 974.5,1287.17 974.5,1287.83 974.5,1288.5C 972.91,1297.63 971.91,1306.96 971.5,1316.5C 969.702,1332.98 968.369,1349.65 967.5,1366.5C 967.5,1368.5 967.5,1370.5 967.5,1372.5C 965.719,1382.31 964.386,1392.31 963.5,1402.5C 963.67,1403.82 963.337,1404.99 962.5,1406C 943.544,1410.57 924.877,1415.74 906.5,1421.5C 902.521,1421.74 898.854,1422.74 895.5,1424.5C 877.277,1429.12 859.61,1435.12 842.5,1442.5C 837.105,1443.74 832.105,1445.74 827.5,1448.5C 823.873,1449.32 820.54,1450.65 817.5,1452.5C 801.712,1458.31 786.545,1465.31 772,1473.5C 769.743,1472.25 767.743,1470.59 766,1468.5C 751.82,1444.13 736.154,1420.8 719,1398.5C 715.086,1392.92 711.586,1387.09 708.5,1381C 708.833,1380.5 709.167,1380 709.5,1379.5C 729.819,1397.49 749.485,1416.15 768.5,1435.5C 769.312,1436.99 770.645,1437.66 772.5,1437.5C 778.617,1435.83 784.617,1434.16 790.5,1432.5C 799.393,1430.53 808.06,1428.19 816.5,1425.5C 816.833,1425.5 817.167,1425.5 817.5,1425.5C 823.054,1424.58 828.387,1423.25 833.5,1421.5C 838.904,1420.44 844.237,1419.11 849.5,1417.5C 853.902,1417.69 857.902,1416.69 861.5,1414.5C 870.06,1413.31 878.393,1411.31 886.5,1408.5C 892.054,1407.58 897.387,1406.25 902.5,1404.5C 908.757,1402.51 915.09,1400.85 921.5,1399.5C 926.739,1398.66 931.739,1397.33 936.5,1395.5C 938.144,1395.71 939.644,1395.38 941,1394.5C 942.214,1389.89 943.214,1385.22 944,1380.5C 945.556,1363.16 947.223,1345.83 949,1328.5C 952.214,1312.27 954.714,1295.93 956.5,1279.5C 958.066,1273.04 959.066,1266.38 959.5,1259.5C 961.55,1250.55 961.884,1241.55 960.5,1232.5C 960.167,1232.5 959.833,1232.5 959.5,1232.5C 940.824,1232.57 922.157,1232.23 903.5,1231.5C 901.708,1230.69 899.708,1230.19 897.5,1230C 884.838,1229.5 872.171,1229.33 859.5,1229.5C 857.5,1229.17 855.5,1228.83 853.5,1228.5C 832.691,1226.55 811.691,1225.22 790.5,1224.5C 779.381,1222.53 768.048,1221.19 756.5,1220.5C 742.473,1219.26 728.473,1217.43 714.5,1215C 711.5,1214 708.5,1213 705.5,1212C 704.029,1210.42 703.029,1208.58 702.5,1206.5C 702.5,1193.83 702.5,1181.17 702.5,1168.5C 702.667,1145.16 702.5,1121.83 702,1098.5C 701.535,1088.65 700.702,1078.98 699.5,1069.5C 699.5,1068.83 699.5,1068.17 699.5,1067.5C 699.342,1054.29 698.342,1041.29 696.5,1028.5C 695.116,1007.83 695.282,987.168 697,966.5C 698.167,965.333 699.333,964.167 700.5,963C 710.086,961.604 719.419,959.27 728.5,956C 748.003,949.073 767.337,941.906 786.5,934.5C 788.898,934.741 790.898,934.074 792.5,932.5C 810.996,925.715 829.329,918.215 847.5,910C 866.105,902.408 884.771,894.908 903.5,887.5C 905.374,887.39 906.874,888.056 908,889.5C 916.885,903.546 927.052,916.546 938.5,928.5 Z"/></g>
<g><path style="opacity:1" fill="#0012aa" d="M 938.5,928.5 C 943.139,931.139 946.806,934.806 949.5,939.5C 945.5,936.167 941.833,932.5 938.5,928.5 Z"/></g>
<g><path style="opacity:1" fill="#000d55" d="M 792.5,932.5 C 790.898,934.074 788.898,934.741 786.5,934.5C 788.102,932.926 790.102,932.259 792.5,932.5 Z"/></g>
<g><path style="opacity:1" fill="#ff0d5b" d="M 1075.5,931.5 C 1075.88,935.489 1075.22,939.155 1073.5,942.5C 1073.81,938.64 1074.48,934.974 1075.5,931.5 Z"/></g>
<g><path style="opacity:1" fill="#001095" d="M 680.5,937.5 C 682.017,937.511 683.184,938.177 684,939.5C 686.057,947.775 682.89,951.275 674.5,950C 670.5,945.667 670.5,941.333 674.5,937C 676.712,936.211 678.712,936.378 680.5,937.5 Z"/></g>
<g><path style="opacity:1" fill="#ff094b" d="M 680.5,937.5 C 681.167,938.5 681.833,939.5 682.5,940.5C 674.388,938.381 672.388,941.047 676.5,948.5C 672.746,947.172 671.579,944.506 673,940.5C 674.848,937.959 677.348,936.959 680.5,937.5 Z"/></g>
<g><path style="opacity:1" fill="#03021b" d="M 682.5,940.5 C 684.839,946.18 682.839,948.846 676.5,948.5C 672.388,941.047 674.388,938.381 682.5,940.5 Z"/></g>
<g><path style="opacity:1" fill="#001197" d="M 864.5,925.5 C 861.859,927.453 858.859,928.953 855.5,930C 838.226,936.147 820.892,941.98 803.5,947.5C 823.606,939.796 843.939,932.462 864.5,925.5 Z"/></g>
<g><path style="opacity:1" fill="#000d7a" d="M 953.5,944.5 C 956.167,945.167 957.833,946.833 958.5,949.5C 956.5,948.167 954.833,946.5 953.5,944.5 Z"/></g>
<g><path style="opacity:1" fill="#000f7f" d="M 929.5,947.5 C 932.903,949.9 935.57,952.9 937.5,956.5C 934.097,954.1 931.43,951.1 929.5,947.5 Z"/></g>
<g><path style="opacity:1" fill="#0013a9" d="M 792.5,951.5 C 787.79,954.852 782.457,956.852 776.5,957.5C 781.547,954.987 786.88,952.987 792.5,951.5 Z"/></g>
<g><path style="opacity:1" fill="#000e79" d="M 937.5,956.5 C 948.5,966.833 959.167,977.5 969.5,988.5C 958.587,979.091 948.087,969.091 938,958.5C 937.536,957.906 937.369,957.239 937.5,956.5 Z"/></g>
<g><path style="opacity:1" fill="#00119b" d="M 970.5,961.5 C 976.776,966.107 982.443,971.441 987.5,977.5C 981.224,972.893 975.557,967.559 970.5,961.5 Z"/></g>
<g><path style="opacity:1" fill="#020a3e" d="M 1191.5,961.5 C 1191.49,973.69 1190.82,985.69 1189.5,997.5C 1189.44,985.307 1190.11,973.307 1191.5,961.5 Z"/></g>
<g><path style="opacity:1" fill="#0013ac" d="M 984.5,1007.5 C 981.392,1015.6 976.725,1022.6 970.5,1028.5C 973.724,1022.39 977.224,1016.39 981,1010.5C 982.039,1009.29 983.206,1008.29 984.5,1007.5 Z"/></g>
<g><path style="opacity:1" fill="#000e6a" d="M 1177.5,991.5 C 1176.29,1013.15 1175.62,1034.81 1175.5,1056.5C 1174.11,1034.78 1174.78,1013.12 1177.5,991.5 Z"/></g>
<g><path style="opacity:1" fill="#000a42" d="M 1189.5,997.5 C 1189.53,1008.69 1188.86,1019.69 1187.5,1030.5C 1187.47,1019.31 1188.14,1008.31 1189.5,997.5 Z"/></g>
<g><path style="opacity:1" fill="#0013a6" d="M 970.5,1028.5 C 969.934,1033.3 967.6,1036.97 963.5,1039.5C 965.087,1035.32 967.421,1031.65 970.5,1028.5 Z"/></g>
<g><path style="opacity:1" fill="#001199" d="M 696.5,1028.5 C 698.342,1041.29 699.342,1054.29 699.5,1067.5C 698.833,1064.17 698.167,1060.83 697.5,1057.5C 696.971,1047.84 696.638,1038.17 696.5,1028.5 Z"/></g>
<g><path style="opacity:1" fill="#0013a6" d="M 963.5,1039.5 C 962.515,1043.81 960.681,1047.81 958,1051.5C 957.329,1052.25 956.496,1052.59 955.5,1052.5C 957.418,1047.66 960.084,1043.32 963.5,1039.5 Z"/></g>
<g><path style="opacity:1" fill="#ff0c54" d="M 1187.5,1030.5 C 1187.5,1036.17 1187.5,1041.83 1187.5,1047.5C 1188.83,1047.5 1190.17,1047.5 1191.5,1047.5C 1190.08,1048.45 1188.41,1048.78 1186.5,1048.5C 1186.18,1042.31 1186.51,1036.31 1187.5,1030.5 Z"/></g>
<g><path style="opacity:1" fill="#0012a2" d="M 951.5,1058.5 C 951.657,1059.87 951.49,1061.21 951,1062.5C 950.124,1064.64 948.624,1065.97 946.5,1066.5C 947.383,1063.3 949.05,1060.63 951.5,1058.5 Z"/></g>
<g><path style="opacity:1" fill="#001095" d="M 962.5,1006.5 C 946.232,1030.18 930.565,1054.35 915.5,1079C 900.832,1079.55 886.166,1080.05 871.5,1080.5C 885.657,1079.19 899.99,1078.19 914.5,1077.5C 926,1059.17 937.5,1040.83 949,1022.5C 952.989,1016.68 957.489,1011.35 962.5,1006.5 Z"/></g>
<g><path style="opacity:1" fill="#0013ad" d="M 946.5,1066.5 C 945.689,1071.46 943.356,1075.46 939.5,1078.5C 941.043,1073.98 943.377,1069.98 946.5,1066.5 Z"/></g>
<g><path style="opacity:1" fill="#001082" d="M 718.5,1072.5 C 720.207,1081.95 721.207,1091.62 721.5,1101.5C 719.656,1092.06 718.656,1082.4 718.5,1072.5 Z"/></g>
<g><path style="opacity:1" fill="#03010f" d="M 1092.5,1088.5 C 1100,1087.8 1102,1090.64 1098.5,1097C 1090.75,1098.09 1088.75,1095.26 1092.5,1088.5 Z"/></g>
<g><path style="opacity:1" fill="#000e80" d="M 699.5,1069.5 C 700.702,1078.98 701.535,1088.65 702,1098.5C 702.5,1121.83 702.667,1145.16 702.5,1168.5C 701.848,1135.65 700.848,1102.65 699.5,1069.5 Z"/></g>
<g><path style="opacity:1" fill="#000d65" d="M 1301.5,1099.5 C 1302.5,1099.5 1303.5,1099.5 1304.5,1099.5C 1304.5,1100.5 1304.5,1101.5 1304.5,1102.5C 1303.5,1102.5 1302.5,1102.5 1301.5,1102.5C 1301.5,1101.5 1301.5,1100.5 1301.5,1099.5 Z"/></g>
<g><path style="opacity:0.071" fill="#775f22" d="M 1414.5,1099.5 C 1417.04,1100.71 1418.38,1102.71 1418.5,1105.5C 1416.41,1104.42 1415.08,1102.75 1414.5,1100.5C 1414.5,1100.17 1414.5,1099.83 1414.5,1099.5 Z"/></g>
<g><path style="opacity:0.071" fill="#745c2e" d="M 1418.5,1109.5 C 1418.03,1112.64 1416.36,1114.98 1413.5,1116.5C 1413.5,1116.17 1413.5,1115.83 1413.5,1115.5C 1414.44,1112.89 1416.11,1110.89 1418.5,1109.5 Z"/></g>
<g><path style="opacity:1" fill="#000c50" d="M 1332.5,1115.5 C 1323.46,1114.88 1320.46,1118.88 1323.5,1127.5C 1322.88,1127.39 1322.38,1127.06 1322,1126.5C 1319.68,1117.84 1322.85,1113.67 1331.5,1114C 1332.06,1114.38 1332.39,1114.88 1332.5,1115.5 Z"/></g>
<g><path style="opacity:1" fill="#000f8c" d="M 1063.5,1114.5 C 1066.06,1114.2 1068.39,1114.53 1070.5,1115.5C 1058.2,1115.81 1052.53,1122.14 1053.5,1134.5C 1050.53,1124.77 1053.86,1118.11 1063.5,1114.5 Z"/></g>
<g><path style="opacity:1" fill="#000005" d="M 1070.5,1115.5 C 1075.1,1116.8 1079.1,1119.13 1082.5,1122.5C 1083.83,1127.83 1083.83,1133.17 1082.5,1138.5C 1077.93,1145.17 1071.6,1147.34 1063.5,1145C 1058.56,1142.89 1055.22,1139.39 1053.5,1134.5C 1052.53,1122.14 1058.2,1115.81 1070.5,1115.5 Z"/></g>
<g><path style="opacity:1" fill="#001af0" d="M 1332.5,1115.5 C 1336.17,1118.29 1337.34,1121.96 1336,1126.5C 1335.62,1127.06 1335.12,1127.39 1334.5,1127.5C 1330.83,1128.83 1327.17,1128.83 1323.5,1127.5C 1320.46,1118.88 1323.46,1114.88 1332.5,1115.5 Z"/></g>
<g><path style="opacity:1" fill="#020c45" d="M 1082.5,1122.5 C 1083.12,1122.61 1083.62,1122.94 1084,1123.5C 1084.67,1128.17 1084.67,1132.83 1084,1137.5C 1083.62,1138.06 1083.12,1138.39 1082.5,1138.5C 1083.83,1133.17 1083.83,1127.83 1082.5,1122.5 Z"/></g>
<g><path style="opacity:1" fill="#0016c6" d="M 1063.5,1114.5 C 1072.22,1112.81 1079.39,1115.48 1085,1122.5C 1087.24,1129.43 1086.57,1136.1 1083,1142.5C 1082.18,1143.82 1081.02,1144.49 1079.5,1144.5C 1081.38,1142.95 1082.38,1140.95 1082.5,1138.5C 1083.12,1138.39 1083.62,1138.06 1084,1137.5C 1084.67,1132.83 1084.67,1128.17 1084,1123.5C 1083.62,1122.94 1083.12,1122.61 1082.5,1122.5C 1079.1,1119.13 1075.1,1116.8 1070.5,1115.5C 1068.39,1114.53 1066.06,1114.2 1063.5,1114.5 Z"/></g>
<g><path style="opacity:1" fill="#000d75" d="M 1323.5,1127.5 C 1327.17,1128.83 1330.83,1128.83 1334.5,1127.5C 1334.05,1128.46 1333.38,1129.29 1332.5,1130C 1330.19,1130.5 1327.86,1130.66 1325.5,1130.5C 1324.83,1129.5 1324.17,1128.5 1323.5,1127.5 Z"/></g>
<g><path style="opacity:1" fill="#070836" d="M 1332.5,1115.5 C 1334.37,1115.86 1335.87,1116.86 1337,1118.5C 1338.86,1128.47 1335.02,1132.47 1325.5,1130.5C 1327.86,1130.66 1330.19,1130.5 1332.5,1130C 1333.38,1129.29 1334.05,1128.46 1334.5,1127.5C 1335.12,1127.39 1335.62,1127.06 1336,1126.5C 1337.34,1121.96 1336.17,1118.29 1332.5,1115.5 Z"/></g>
<g><path style="opacity:1" fill="#020c51" d="M 534.5,1130.5 C 538.908,1130.06 540.575,1132.06 539.5,1136.5C 534.074,1137.42 532.407,1135.42 534.5,1130.5 Z"/></g>
<g><path style="opacity:1" fill="#0012a2" d="M 1053.5,1134.5 C 1055.22,1139.39 1058.56,1142.89 1063.5,1145C 1071.6,1147.34 1077.93,1145.17 1082.5,1138.5C 1082.38,1140.95 1081.38,1142.95 1079.5,1144.5C 1070.02,1149.39 1061.52,1148.06 1054,1140.5C 1053.5,1138.53 1053.34,1136.53 1053.5,1134.5 Z"/></g>
<g><path style="opacity:1" fill="#0013ab" d="M 724.5,1139.5 C 726.238,1144.22 726.904,1149.22 726.5,1154.5C 725.111,1149.73 724.444,1144.73 724.5,1139.5 Z"/></g>
<g><path style="opacity:1" fill="#0017d5" d="M 697.5,1057.5 C 698.167,1060.83 698.833,1064.17 699.5,1067.5C 699.5,1068.17 699.5,1068.83 699.5,1069.5C 700.848,1102.65 701.848,1135.65 702.5,1168.5C 702.5,1181.17 702.5,1193.83 702.5,1206.5C 701.338,1156.97 699.672,1107.3 697.5,1057.5 Z"/></g>
<g><path style="opacity:1" fill="#0015bf" d="M 955.5,1164.5 C 955.294,1157.37 952.127,1155.71 946,1159.5C 945.506,1161.13 945.34,1162.8 945.5,1164.5C 944.307,1164.03 943.64,1163.03 943.5,1161.5C 946.206,1154.88 950.373,1153.88 956,1158.5C 956.789,1160.71 956.622,1162.71 955.5,1164.5 Z"/></g>
<g><path style="opacity:1" fill="#000d75" d="M 955.5,1164.5 C 955.5,1166.5 954.5,1167.5 952.5,1167.5C 949.022,1169.33 946.689,1168.33 945.5,1164.5C 945.34,1162.8 945.506,1161.13 946,1159.5C 952.127,1155.71 955.294,1157.37 955.5,1164.5 Z"/></g>
<g><path style="opacity:1" fill="#040218" d="M 952.5,1167.5 C 946.357,1166.97 945.024,1164.14 948.5,1159C 953.496,1158.34 955.33,1160.5 954,1165.5C 953.283,1166.04 952.783,1166.71 952.5,1167.5 Z"/></g>
<g><path style="opacity:1" fill="#02010d" d="M 1102.5,1169.5 C 1104.29,1174.21 1103.29,1178.21 1099.5,1181.5C 1096.98,1182.8 1094.31,1182.8 1091.5,1181.5C 1090.81,1180.15 1089.81,1179.15 1088.5,1178.5C 1088.03,1174.84 1088.7,1171.5 1090.5,1168.5C 1094.69,1165.75 1098.69,1166.08 1102.5,1169.5 Z"/></g>
<g><path style="opacity:1" fill="#0c0424" d="M 493.5,1165.5 C 498.894,1164.55 500.561,1166.55 498.5,1171.5C 492.74,1173.21 491.074,1171.21 493.5,1165.5 Z"/></g>
<g><path style="opacity:1" fill="#07052d" d="M 598.5,1169.5 C 597.365,1171.21 595.698,1171.88 593.5,1171.5C 593.5,1169.83 593.5,1168.17 593.5,1166.5C 595.167,1166.5 596.833,1166.5 598.5,1166.5C 598.5,1167.5 598.5,1168.5 598.5,1169.5 Z"/></g>
<g><path style="opacity:1" fill="#000e82" d="M 598.5,1169.5 C 598.5,1168.5 598.5,1167.5 598.5,1166.5C 596.833,1166.5 595.167,1166.5 593.5,1166.5C 593.5,1168.17 593.5,1169.83 593.5,1171.5C 592.275,1170.85 591.608,1169.68 591.5,1168C 591.451,1163.85 593.451,1162.52 597.5,1164C 599.553,1165.68 599.887,1167.51 598.5,1169.5 Z"/></g>
<g><path style="opacity:1" fill="#000d6f" d="M 1090.5,1168.5 C 1088.7,1171.5 1088.03,1174.84 1088.5,1178.5C 1087.36,1175.7 1087.2,1172.7 1088,1169.5C 1088.67,1168.75 1089.5,1168.41 1090.5,1168.5 Z"/></g>
<g><path style="opacity:1" fill="#0012a5" d="M 1102.5,1169.5 C 1103.12,1169.61 1103.62,1169.94 1104,1170.5C 1104.67,1173.17 1104.67,1175.83 1104,1178.5C 1103.08,1180.38 1101.58,1181.38 1099.5,1181.5C 1103.29,1178.21 1104.29,1174.21 1102.5,1169.5 Z"/></g>
<g><path style="opacity:1" fill="#0014b1" d="M 1212.5,1172.5 C 1213.83,1172.5 1215.17,1172.5 1216.5,1172.5C 1216.5,1173.83 1216.5,1175.17 1216.5,1176.5C 1213.5,1176.83 1212.17,1175.5 1212.5,1172.5 Z"/></g>
<g><path style="opacity:1" fill="#00108a" d="M 726.5,1163.5 C 727.29,1164.61 727.79,1165.94 728,1167.5C 728.5,1175.49 728.666,1183.49 728.5,1191.5C 727.572,1182.34 726.905,1173 726.5,1163.5 Z"/></g>
<g><path style="opacity:1" fill="#02010d" d="M 563.5,1188.5 C 568.329,1195.19 566.662,1199.52 558.5,1201.5C 556.045,1201.37 554.045,1200.37 552.5,1198.5C 551.167,1195.83 551.167,1193.17 552.5,1190.5C 555.846,1188.68 559.513,1188.01 563.5,1188.5 Z"/></g>
<g><path style="opacity:1" fill="#0014b9" d="M 567.5,1190.5 C 566.395,1189.4 565.062,1188.73 563.5,1188.5C 560.863,1186.57 557.863,1186.07 554.5,1187C 553.177,1187.82 552.511,1188.98 552.5,1190.5C 551.167,1193.17 551.167,1195.83 552.5,1198.5C 552.5,1199.17 552.5,1199.83 552.5,1200.5C 550.069,1199.39 549.069,1197.39 549.5,1194.5C 550.783,1185.97 555.783,1182.81 564.5,1185C 566.174,1186.51 567.174,1188.34 567.5,1190.5 Z"/></g>
<g><path style="opacity:1" fill="#060b3f" d="M 563.5,1188.5 C 559.513,1188.01 555.846,1188.68 552.5,1190.5C 552.511,1188.98 553.177,1187.82 554.5,1187C 557.863,1186.07 560.863,1186.57 563.5,1188.5 Z"/></g>
<g><path style="opacity:1" fill="#0013a0" d="M 744.5,1193.5 C 749.911,1193.13 754.911,1194.13 759.5,1196.5C 754.273,1196.02 749.273,1195.02 744.5,1193.5 Z"/></g>
<g><path style="opacity:1" fill="#00129d" d="M 761.5,1196.5 C 768.736,1196.76 775.736,1197.76 782.5,1199.5C 775.251,1199.32 768.251,1198.32 761.5,1196.5 Z"/></g>
<g><path style="opacity:1" fill="#000d73" d="M 563.5,1188.5 C 565.062,1188.73 566.395,1189.4 567.5,1190.5C 567.747,1201.94 562.747,1205.27 552.5,1200.5C 552.5,1199.83 552.5,1199.17 552.5,1198.5C 554.045,1200.37 556.045,1201.37 558.5,1201.5C 566.662,1199.52 568.329,1195.19 563.5,1188.5 Z"/></g>
<g><path style="opacity:1" fill="#0013ad" d="M 785.5,1199.5 C 794.389,1199.2 803.056,1199.86 811.5,1201.5C 802.616,1201.74 793.949,1201.07 785.5,1199.5 Z"/></g>
<g><path style="opacity:1" fill="#0013a9" d="M 811.5,1201.5 C 819.736,1201.12 827.736,1201.78 835.5,1203.5C 827.271,1203.82 819.271,1203.16 811.5,1201.5 Z"/></g>
<g><path style="opacity:1" fill="#000f7b" d="M 842.5,1204.5 C 850.403,1204.14 858.07,1204.8 865.5,1206.5C 857.656,1206.18 849.989,1205.51 842.5,1204.5 Z"/></g>
<g><path style="opacity:1" fill="#000f75" d="M 867.5,1206.5 C 901.368,1208.46 935.035,1211.13 968.5,1214.5C 934.615,1212.76 900.948,1210.09 867.5,1206.5 Z"/></g>
<g><path style="opacity:1" fill="#0015c7" d="M 756.5,1220.5 C 768.048,1221.19 779.381,1222.53 790.5,1224.5C 778.905,1224.21 767.572,1222.88 756.5,1220.5 Z"/></g>
<g><path style="opacity:1" fill="#001aed" d="M 1310.5,1221.5 C 1318.15,1221.31 1321.31,1224.98 1320,1232.5C 1316.61,1236.03 1312.94,1236.37 1309,1233.5C 1306.66,1229.05 1307.16,1225.05 1310.5,1221.5 Z"/></g>
<g><path style="opacity:1" fill="#0013ae" d="M 790.5,1224.5 C 811.691,1225.22 832.691,1226.55 853.5,1228.5C 833.156,1227.98 812.823,1227.14 792.5,1226C 791.584,1225.72 790.918,1225.22 790.5,1224.5 Z"/></g>
<g><path style="opacity:1" fill="#0016c7" d="M 859.5,1229.5 C 872.171,1229.33 884.838,1229.5 897.5,1230C 899.708,1230.19 901.708,1230.69 903.5,1231.5C 891.162,1231.67 878.829,1231.5 866.5,1231C 863.964,1230.81 861.631,1230.31 859.5,1229.5 Z"/></g>
<g><path style="opacity:1" fill="#0018db" d="M 1290.5,1240.5 C 1294.91,1240.06 1296.57,1242.06 1295.5,1246.5C 1293.5,1246.5 1291.5,1246.5 1289.5,1246.5C 1289.33,1244.38 1289.66,1242.38 1290.5,1240.5 Z"/></g>
<g><path style="opacity:1" fill="#090835" d="M 960.5,1232.5 C 961.884,1241.55 961.55,1250.55 959.5,1259.5C 959.56,1250.49 959.893,1241.49 960.5,1232.5 Z"/></g>
<g><path style="opacity:1" fill="#0013b0" d="M 689.5,1275.5 C 689.304,1267.04 684.971,1263.88 676.5,1266C 675.307,1267.09 673.973,1267.93 672.5,1268.5C 672.393,1266.1 673.393,1264.26 675.5,1263C 686.194,1261.11 690.861,1265.27 689.5,1275.5 Z"/></g>
<g><path style="opacity:1" fill="#03010f" d="M 689.5,1275.5 C 689.672,1276.49 689.338,1277.16 688.5,1277.5C 685.595,1280.78 681.929,1282.11 677.5,1281.5C 676.521,1279.85 675.188,1278.52 673.5,1277.5C 672.516,1274.57 672.183,1271.57 672.5,1268.5C 673.973,1267.93 675.307,1267.09 676.5,1266C 684.971,1263.88 689.304,1267.04 689.5,1275.5 Z"/></g>
<g><path style="opacity:1" fill="#0015be" d="M 959.5,1232.5 C 959.833,1232.5 960.167,1232.5 960.5,1232.5C 959.893,1241.49 959.56,1250.49 959.5,1259.5C 959.066,1266.38 958.066,1273.04 956.5,1279.5C 957.347,1263.82 958.347,1248.16 959.5,1232.5 Z"/></g>
<g><path style="opacity:1" fill="#0015bd" d="M 978.5,1257.5 C 977.997,1266.19 977.164,1274.86 976,1283.5C 975.768,1284.74 975.268,1285.74 974.5,1286.5C 974.574,1276.52 975.908,1266.85 978.5,1257.5 Z"/></g>
<g><path style="opacity:1" fill="#000d79" d="M 688.5,1277.5 C 687.833,1280.17 686.167,1281.83 683.5,1282.5C 681.265,1282.79 679.265,1282.46 677.5,1281.5C 681.929,1282.11 685.595,1280.78 688.5,1277.5 Z"/></g>
<g><path style="opacity:1" fill="#0015c1" d="M 672.5,1268.5 C 672.183,1271.57 672.516,1274.57 673.5,1277.5C 675.188,1278.52 676.521,1279.85 677.5,1281.5C 679.265,1282.46 681.265,1282.79 683.5,1282.5C 680.645,1283.8 677.645,1283.8 674.5,1282.5C 672.062,1279.62 670.729,1276.29 670.5,1272.5C 670.34,1270.65 671.007,1269.31 672.5,1268.5 Z"/></g>
<g><path style="opacity:1" fill="#000f8f" d="M 702.5,1294.5 C 707.486,1294.3 709.152,1296.47 707.5,1301C 701.741,1302.14 700.074,1299.97 702.5,1294.5 Z"/></g>
<g><path style="opacity:1" fill="#0015ba" d="M 974.5,1288.5 C 975.119,1298.17 974.119,1307.5 971.5,1316.5C 971.91,1306.96 972.91,1297.63 974.5,1288.5 Z"/></g>
<g><path style="opacity:1" fill="#0019ea" d="M 1165.5,1303.5 C 1172.37,1303.54 1174.87,1306.87 1173,1313.5C 1170.84,1317.12 1167.67,1318.29 1163.5,1317C 1159.19,1311.73 1159.85,1307.23 1165.5,1303.5 Z"/></g>
<g><path style="opacity:1" fill="#001199" d="M 971.5,1316.5 C 971.226,1333.4 969.893,1350.07 967.5,1366.5C 968.369,1349.65 969.702,1332.98 971.5,1316.5 Z"/></g>
<g><path style="opacity:1" fill="#00119c" d="M 1089.5,1343.5 C 1089.5,1342.17 1089.5,1340.83 1089.5,1339.5C 1088.5,1339.5 1087.5,1339.5 1086.5,1339.5C 1086.5,1340.5 1086.5,1341.5 1086.5,1342.5C 1084.65,1338.51 1085.98,1337.01 1090.5,1338C 1092.08,1340.34 1091.74,1342.17 1089.5,1343.5 Z"/></g>
<g><path style="opacity:1" fill="#010113" d="M 1061.5,1337.5 C 1065.66,1340.76 1066.49,1344.76 1064,1349.5C 1059.21,1352.56 1055.04,1351.9 1051.5,1347.5C 1050.81,1340.23 1054.15,1336.89 1061.5,1337.5 Z"/></g>
<g><path style="opacity:1" fill="#060835" d="M 1089.5,1343.5 C 1088.21,1343.74 1087.21,1343.4 1086.5,1342.5C 1086.5,1341.5 1086.5,1340.5 1086.5,1339.5C 1087.5,1339.5 1088.5,1339.5 1089.5,1339.5C 1089.5,1340.83 1089.5,1342.17 1089.5,1343.5 Z"/></g>
<g><path style="opacity:1" fill="#0017cf" d="M 1182.5,1340.5 C 1186.69,1340.4 1188.03,1342.24 1186.5,1346C 1181.71,1346.84 1180.38,1345.01 1182.5,1340.5 Z"/></g>
<g><path style="opacity:1" fill="#0013b0" d="M 1063.5,1337.5 C 1062.83,1337.5 1062.17,1337.5 1061.5,1337.5C 1054.15,1336.89 1050.81,1340.23 1051.5,1347.5C 1051.86,1349.37 1052.86,1350.87 1054.5,1352C 1057.15,1352.5 1059.81,1352.66 1062.5,1352.5C 1057.07,1355.2 1052.57,1353.86 1049,1348.5C 1048,1336.61 1052.83,1332.94 1063.5,1337.5 Z"/></g>
<g><path style="opacity:1" fill="#000d72" d="M 1061.5,1337.5 C 1062.17,1337.5 1062.83,1337.5 1063.5,1337.5C 1066.39,1340.94 1067.23,1344.94 1066,1349.5C 1064.96,1350.71 1063.79,1351.71 1062.5,1352.5C 1059.81,1352.66 1057.15,1352.5 1054.5,1352C 1052.86,1350.87 1051.86,1349.37 1051.5,1347.5C 1055.04,1351.9 1059.21,1352.56 1064,1349.5C 1066.49,1344.76 1065.66,1340.76 1061.5,1337.5 Z"/></g>
<g><path style="opacity:0.122" fill="#3e438b" d="M 1413.5,1115.5 C 1413.5,1115.83 1413.5,1116.17 1413.5,1116.5C 1305.44,1289.62 1196.61,1462.28 1087,1634.5C 1075.58,1651.07 1064.41,1667.74 1053.5,1684.5C 1173.51,1494.83 1293.51,1305.16 1413.5,1115.5 Z"/></g>
<g><path style="opacity:1" fill="#0015c2" d="M 967.5,1372.5 C 967.682,1381.87 967.182,1391.2 966,1400.5C 965.292,1401.38 964.458,1402.05 963.5,1402.5C 964.386,1392.31 965.719,1382.31 967.5,1372.5 Z"/></g>
<g><path style="opacity:1" fill="#001094" d="M 936.5,1395.5 C 931.739,1397.33 926.739,1398.66 921.5,1399.5C 926.126,1397.17 931.126,1395.83 936.5,1395.5 Z"/></g>
<g><path style="opacity:1" fill="#001193" d="M 902.5,1404.5 C 897.387,1406.25 892.054,1407.58 886.5,1408.5C 886.611,1407.88 886.944,1407.38 887.5,1407C 892.453,1405.84 897.453,1405.01 902.5,1404.5 Z"/></g>
<g><path style="opacity:1" fill="#000e78" d="M 861.5,1414.5 C 857.902,1416.69 853.902,1417.69 849.5,1417.5C 853.298,1416.13 857.298,1415.13 861.5,1414.5 Z"/></g>
<g><path style="opacity:1" fill="#0012a2" d="M 833.5,1421.5 C 828.387,1423.25 823.054,1424.58 817.5,1425.5C 817.611,1424.88 817.944,1424.38 818.5,1424C 823.453,1422.84 828.453,1422.01 833.5,1421.5 Z"/></g>
<g><path style="opacity:1" fill="#001197" d="M 906.5,1421.5 C 905.848,1422.73 904.681,1423.39 903,1423.5C 900.502,1423.92 898.002,1424.25 895.5,1424.5C 898.854,1422.74 902.521,1421.74 906.5,1421.5 Z"/></g>
<g><path style="opacity:1" fill="#000e73" d="M 661.5,1425.5 C 662.919,1424.55 664.585,1424.22 666.5,1424.5C 672.038,1426.57 674.204,1430.57 673,1436.5C 672.617,1437.06 672.117,1437.39 671.5,1437.5C 672.866,1429.54 669.532,1425.54 661.5,1425.5 Z"/></g>
<g><path style="opacity:1" fill="#0012a3" d="M 816.5,1425.5 C 808.06,1428.19 799.393,1430.53 790.5,1432.5C 790.611,1431.88 790.944,1431.38 791.5,1431C 799.717,1428.52 808.05,1426.69 816.5,1425.5 Z"/></g>
<g><path style="opacity:1" fill="#00000a" d="M 661.5,1425.5 C 669.532,1425.54 672.866,1429.54 671.5,1437.5C 667.123,1442.37 662.456,1442.7 657.5,1438.5C 657.5,1435.5 657.5,1432.5 657.5,1429.5C 658.5,1427.83 659.833,1426.5 661.5,1425.5 Z"/></g>
<g><path style="opacity:1" fill="#0016c7" d="M 666.5,1424.5 C 664.585,1424.22 662.919,1424.55 661.5,1425.5C 659.833,1426.5 658.5,1427.83 657.5,1429.5C 656.275,1430.15 655.608,1431.32 655.5,1433C 655.393,1435.22 656.06,1437.05 657.5,1438.5C 657.5,1439.17 657.5,1439.83 657.5,1440.5C 655.926,1440.06 654.759,1439.06 654,1437.5C 653.333,1434.5 653.333,1431.5 654,1428.5C 656.285,1427.18 658.452,1425.68 660.5,1424C 662.712,1423.21 664.712,1423.38 666.5,1424.5 Z"/></g>
<g><path style="opacity:1" fill="#050b3f" d="M 657.5,1429.5 C 657.5,1432.5 657.5,1435.5 657.5,1438.5C 656.06,1437.05 655.393,1435.22 655.5,1433C 655.608,1431.32 656.275,1430.15 657.5,1429.5 Z"/></g>
<g><path style="opacity:1" fill="#00119e" d="M 790.5,1432.5 C 784.617,1434.16 778.617,1435.83 772.5,1437.5C 770.645,1437.66 769.312,1436.99 768.5,1435.5C 769.695,1435.68 770.862,1436.01 772,1436.5C 777.948,1434.2 784.115,1432.86 790.5,1432.5 Z"/></g>
<g><path style="opacity:1" fill="#001194" d="M 895.5,1424.5 C 890.843,1427.96 885.51,1429.79 879.5,1430C 867.226,1434.48 854.892,1438.65 842.5,1442.5C 859.61,1435.12 877.277,1429.12 895.5,1424.5 Z"/></g>
<g><path style="opacity:1" fill="#000c69" d="M 671.5,1437.5 C 671.141,1439.37 670.141,1440.87 668.5,1442C 664.525,1442.99 660.859,1442.49 657.5,1440.5C 657.5,1439.83 657.5,1439.17 657.5,1438.5C 662.456,1442.7 667.123,1442.37 671.5,1437.5 Z"/></g>
<g><path style="opacity:1" fill="#0016c9" d="M 1172.5,1441.5 C 1174.17,1441.5 1175.83,1441.5 1177.5,1441.5C 1178.17,1445.5 1176.5,1447.17 1172.5,1446.5C 1172.5,1444.83 1172.5,1443.17 1172.5,1441.5 Z"/></g>
<g><path style="opacity:1" fill="#00108c" d="M 842.5,1442.5 C 838.059,1445.65 833.059,1447.65 827.5,1448.5C 832.105,1445.74 837.105,1443.74 842.5,1442.5 Z"/></g>
<g><path style="opacity:1" fill="#0013af" d="M 827.5,1448.5 C 825.109,1451.92 821.775,1453.25 817.5,1452.5C 820.54,1450.65 823.873,1449.32 827.5,1448.5 Z"/></g>
<g><path style="opacity:1" fill="#010007" d="M 907.5,1478.5 C 921.757,1483.97 924.423,1492.97 915.5,1505.5C 897.629,1511.15 889.796,1504.48 892,1485.5C 895.71,1479.98 900.877,1477.65 907.5,1478.5 Z"/></g>
<g><path style="opacity:1" fill="#0019e6" d="M 1025.5,1495.5 C 1032.63,1495.71 1034.29,1498.87 1030.5,1505C 1023.47,1504.76 1021.81,1501.59 1025.5,1495.5 Z"/></g>
<g><path style="opacity:1" fill="#00129f" d="M 907.5,1478.5 C 900.877,1477.65 895.71,1479.98 892,1485.5C 889.796,1504.48 897.629,1511.15 915.5,1505.5C 914.859,1506.48 914.193,1507.48 913.5,1508.5C 894.172,1511.67 886.672,1503.67 891,1484.5C 895.195,1478.38 900.695,1476.38 907.5,1478.5 Z"/></g>
<g><path style="opacity:1" fill="#0017d3" d="M 1093.5,1520.5 C 1097.98,1520.8 1099.31,1522.97 1097.5,1527C 1092.57,1527.43 1091.24,1525.26 1093.5,1520.5 Z"/></g>
<g><path style="opacity:1" fill="#0013a7" d="M 942.5,1529.5 C 939.71,1526.41 936.376,1525.74 932.5,1527.5C 932.611,1526.88 932.944,1526.38 933.5,1526C 936.482,1525.5 939.482,1525.34 942.5,1525.5C 942.5,1526.83 942.5,1528.17 942.5,1529.5 Z"/></g>
<g><path style="opacity:1" fill="#000008" d="M 942.5,1529.5 C 942.599,1532.24 942.265,1534.9 941.5,1537.5C 938.5,1538.83 935.5,1538.83 932.5,1537.5C 931.735,1534.9 931.401,1532.24 931.5,1529.5C 931.833,1528.83 932.167,1528.17 932.5,1527.5C 936.376,1525.74 939.71,1526.41 942.5,1529.5 Z"/></g>
<g><path style="opacity:1" fill="#000d6a" d="M 931.5,1529.5 C 931.401,1532.24 931.735,1534.9 932.5,1537.5C 930.974,1536.51 930.307,1535.01 930.5,1533C 930.514,1531.62 930.848,1530.45 931.5,1529.5 Z"/></g>
<g><path style="opacity:1" fill="#000d74" d="M 942.5,1529.5 C 943.152,1530.45 943.486,1531.62 943.5,1533C 943.693,1535.01 943.026,1536.51 941.5,1537.5C 942.265,1534.9 942.599,1532.24 942.5,1529.5 Z"/></g>
<g><path style="opacity:1" fill="#001bf5" d="M 1070.5,1548.5 C 1082.58,1547.8 1085.92,1552.96 1080.5,1564C 1072.78,1566.59 1068.45,1563.92 1067.5,1556C 1067.55,1553.08 1068.55,1550.58 1070.5,1548.5 Z"/></g>
<g><path style="opacity:1" fill="#04031e" d="M 827.5,1596.5 C 827.946,1599.01 827.28,1601.01 825.5,1602.5C 820.877,1603.59 819.044,1601.93 820,1597.5C 822.242,1595.29 824.742,1594.95 827.5,1596.5 Z"/></g>
<g><path style="opacity:1" fill="#000d70" d="M 827.5,1596.5 C 824.742,1594.95 822.242,1595.29 820,1597.5C 819.044,1601.93 820.877,1603.59 825.5,1602.5C 825.209,1603.65 824.376,1604.32 823,1604.5C 816.293,1602.66 815.126,1599.16 819.5,1594C 821.833,1593.33 824.167,1593.33 826.5,1594C 827.252,1594.67 827.586,1595.5 827.5,1596.5 Z"/></g>
<g><path style="opacity:1" fill="#001088" d="M 836.5,1617.5 C 838.628,1616.37 840.961,1616.2 843.5,1617C 844.823,1617.82 845.489,1618.98 845.5,1620.5C 843.112,1617.92 840.112,1616.92 836.5,1617.5 Z"/></g>
<g><path style="opacity:1" fill="#02000c" d="M 836.5,1617.5 C 840.112,1616.92 843.112,1617.92 845.5,1620.5C 846.265,1623.1 846.599,1625.76 846.5,1628.5C 843.717,1632.01 840.051,1633.34 835.5,1632.5C 829.913,1626.98 830.246,1621.98 836.5,1617.5 Z"/></g>
<g><path style="opacity:1" fill="#0012a7" d="M 1041.5,1623.5 C 1043.17,1623.5 1044.83,1623.5 1046.5,1623.5C 1046.5,1625.17 1046.5,1626.83 1046.5,1628.5C 1044.83,1628.5 1043.17,1628.5 1041.5,1628.5C 1041.5,1626.83 1041.5,1625.17 1041.5,1623.5 Z"/></g>
<g><path style="opacity:1" fill="#000d76" d="M 846.5,1628.5 C 846.141,1630.37 845.141,1631.87 843.5,1633C 840.633,1633.8 837.966,1633.63 835.5,1632.5C 840.051,1633.34 843.717,1632.01 846.5,1628.5 Z"/></g>
<g><path style="opacity:0.016" fill="#3d428d" d="M 967.5,1571.5 C 968.28,1575.13 969.78,1578.46 972,1581.5C 994.354,1615.55 1016.19,1649.88 1037.5,1684.5C 1013.83,1648.5 990.167,1612.5 966.5,1576.5C 966.216,1574.59 966.549,1572.92 967.5,1571.5 Z"/></g>
<g><path style="opacity:0.275" fill="#3e4489" d="M 1037.5,1684.5 C 1039.55,1686.55 1041.21,1688.88 1042.5,1691.5C 1039.68,1690.01 1038.01,1687.67 1037.5,1684.5 Z"/></g>
<g><path style="opacity:0.016" fill="#3e4387" d="M 1053.5,1684.5 C 1052.99,1687.67 1051.32,1690.01 1048.5,1691.5C 1049.79,1688.88 1051.45,1686.55 1053.5,1684.5 Z"/></g>
<g><path style="opacity:0.041" fill="#000000" d="M 944.5,1780.5 C 945.94,1782.42 945.607,1784.09 943.5,1785.5C 941.889,1784.68 941.222,1783.35 941.5,1781.5C 942.791,1781.74 943.791,1781.4 944.5,1780.5 Z"/></g>
</svg>
