<?xml version="1.0" encoding="UTF-8"?>
<!DOCTYPE svg PUBLIC "-//W3C//DTD SVG 1.1//EN" "http://www.w3.org/Graphics/SVG/1.1/DTD/svg11.dtd">
<svg xmlns="http://www.w3.org/2000/svg" version="1.1" width="1668px" height="2388px" style="shape-rendering:geometricPrecision; text-rendering:geometricPrecision; image-rendering:optimizeQuality; fill-rule:evenodd; clip-rule:evenodd" xmlns:xlink="http://www.w3.org/1999/xlink">
<g><path style="opacity:1" fill="#f5da00" d="M 1047.5,522.5 C 1167.14,710.439 1286.31,898.773 1405,1087.5C 1409.03,1094.25 1413.53,1100.59 1418.5,1106.5C 1419.83,1107.17 1419.83,1107.83 1418.5,1108.5C 1415.2,1111.74 1412.37,1115.4 1410,1119.5C 1289.64,1310.89 1168.81,1501.89 1047.5,1692.5C 1046.17,1693.83 1044.83,1693.83 1043.5,1692.5C 1020.27,1655.72 996.771,1619.05 973,1582.5C 970.607,1579.05 968.774,1575.38 967.5,1571.5C 968.164,1569.51 969.331,1567.85 971,1566.5C 996.093,1605.1 1020.59,1644.1 1044.5,1683.5C 1045.17,1684.83 1045.83,1684.83 1046.5,1683.5C 1166.71,1490.97 1287.71,1298.97 1409.5,1107.5C 1287.92,915.335 1166.58,723.002 1045.5,530.5C 1002.99,598.874 959.986,666.874 916.5,734.5C 915.048,733.06 914.048,731.394 913.5,729.5C 913.88,726.255 915.047,723.255 917,720.5C 959.022,654.331 1001.19,588.331 1043.5,522.5C 1044.83,521.167 1046.17,521.167 1047.5,522.5 Z"/></g>
<g><path style="opacity:0.991" fill="#010100" d="M 967.5,1571.5 C 966.549,1572.92 966.216,1574.59 966.5,1576.5C 924.594,1642.64 882.427,1708.64 840,1774.5C 835.667,1781.17 831.333,1781.17 827,1774.5C 739.49,1638.81 652.99,1502.48 567.5,1365.5C 568.573,1364.75 568.74,1363.75 568,1362.5C 534.308,1308.43 500.142,1254.76 465.5,1201.5C 464.557,1198.89 462.89,1196.89 460.5,1195.5C 459.167,1194.17 459.167,1192.83 460.5,1191.5C 462.633,1189.91 464.299,1187.91 465.5,1185.5C 509.592,1116.83 553.426,1047.83 597,978.5C 597.833,976.833 598.667,975.167 599.5,973.5C 599.376,972.893 599.043,972.56 598.5,972.5C 673.896,852.049 750.062,732.049 827,612.5C 831.333,605.833 835.667,605.833 840,612.5C 863.942,650.068 888.108,687.402 912.5,724.5C 912.216,726.415 912.549,728.081 913.5,729.5C 914.048,731.394 915.048,733.06 916.5,734.5C 959.986,666.874 1002.99,598.874 1045.5,530.5C 1166.58,723.002 1287.92,915.335 1409.5,1107.5C 1287.71,1298.97 1166.71,1490.97 1046.5,1683.5C 1045.83,1684.83 1045.17,1684.83 1044.5,1683.5C 1020.59,1644.1 996.093,1605.1 971,1566.5C 969.331,1567.85 968.164,1569.51 967.5,1571.5 Z"/></g>
<g><path style="opacity:1" fill="#af9b00" d="M 1039.5,557.5 C 1041.17,557.5 1042.83,557.5 1044.5,557.5C 1044.5,558.833 1044.5,560.167 1044.5,561.5C 1042.83,561.5 1041.17,561.5 1039.5,561.5C 1039.5,560.167 1039.5,558.833 1039.5,557.5 Z"/></g>
<g><path style="opacity:1" fill="#dec600" d="M 1049.5,569.5 C 1056.95,569.413 1058.95,572.58 1055.5,579C 1047.94,579.282 1045.94,576.115 1049.5,569.5 Z"/></g>
<g><path style="opacity:1" fill="#fde200" d="M 832.5,616.5 C 835.439,618.988 837.939,621.988 840,625.5C 958.931,815.04 1078.1,1004.37 1197.5,1193.5C 1075.93,1385.63 954.598,1577.96 833.5,1770.5C 712.13,1578.14 590.797,1385.81 469.5,1193.5C 563.433,1044.39 657.6,895.39 752,746.5C 779.106,703.278 805.939,659.945 832.5,616.5 Z"/></g>
<g><path style="opacity:0.282" fill="#8c7f00" d="M 1043.5,522.5 C 1001.19,588.331 959.022,654.331 917,720.5C 915.047,723.255 913.88,726.255 913.5,729.5C 912.549,728.081 912.216,726.415 912.5,724.5C 954.406,658.359 996.573,592.359 1039,526.5C 1040.37,524.959 1041.87,523.625 1043.5,522.5 Z"/></g>
<g><path style="opacity:1" fill="#f6db00" d="M 1078.5,639.5 C 1079.42,664.485 1079.75,689.485 1079.5,714.5C 1079.5,715.167 1079.5,715.833 1079.5,716.5C 1078.5,732.325 1078.17,748.325 1078.5,764.5C 1077.18,771.344 1077.18,778.344 1078.5,785.5C 1079.11,785.376 1079.44,785.043 1079.5,784.5C 1080.17,784.5 1080.5,784.167 1080.5,783.5C 1093.07,773.44 1104.9,762.44 1116,750.5C 1119.09,737.338 1120.43,724.005 1120,710.5C 1118.33,704.818 1116.66,699.151 1115,693.5C 1114.17,688.467 1114.34,683.467 1115.5,678.5C 1118.67,689.872 1123.84,700.206 1131,709.5C 1129.46,724.208 1127.29,738.874 1124.5,753.5C 1112.36,769.476 1100.02,785.31 1087.5,801C 1098,797.372 1107.66,792.038 1116.5,785C 1120.79,783.798 1124.29,784.965 1127,788.5C 1132.76,802.697 1139.1,816.697 1146,830.5C 1157.46,847.304 1168.13,864.638 1178,882.5C 1184,891.167 1190,899.833 1196,908.5C 1196.99,911.408 1197.49,914.408 1197.5,917.5C 1195.18,932.465 1193.01,947.465 1191,962.5C 1189.34,987.147 1188.18,1011.81 1187.5,1036.5C 1186.52,1040.3 1186.18,1044.3 1186.5,1048.5C 1188.1,1048.77 1189.43,1048.43 1190.5,1047.5C 1203.25,1046.66 1215.91,1045.16 1228.5,1043C 1232.88,1036.41 1237.38,1029.91 1242,1023.5C 1249.03,1016.8 1255.7,1009.8 1262,1002.5C 1251.65,1021.38 1242.15,1040.88 1233.5,1061C 1232.13,1061.87 1230.63,1062.37 1229,1062.5C 1211.39,1058.49 1193.56,1056.49 1175.5,1056.5C 1175.63,1038.5 1175.96,1020.5 1176.5,1002.5C 1177.7,976.17 1178.53,949.836 1179,923.5C 1174.33,914.833 1169.67,906.167 1165,897.5C 1149.72,864.61 1134.22,831.943 1118.5,799.5C 1102.36,809.809 1088.86,822.809 1078,838.5C 1077.01,871.834 1076.01,905.167 1075,938.5C 1072.92,945.321 1072.09,952.321 1072.5,959.5C 1070.83,959.5 1069.17,959.5 1067.5,959.5C 1065.34,929.189 1065,898.856 1066.5,868.5C 1067.88,845.013 1068.55,821.346 1068.5,797.5C 1068.93,763.501 1069.26,729.501 1069.5,695.5C 1070.82,682.354 1071.49,669.021 1071.5,655.5C 1071.5,653.833 1071.5,652.167 1071.5,650.5C 1072.52,647.026 1073.19,643.36 1073.5,639.5C 1075.17,636.833 1076.83,636.833 1078.5,639.5 Z"/></g>
<g><path style="opacity:1" fill="#4b4304" d="M 1073.5,639.5 C 1073.19,643.36 1072.52,647.026 1071.5,650.5C 1071.12,646.511 1071.78,642.845 1073.5,639.5 Z"/></g>
<g><path style="opacity:1" fill="#ddc400" d="M 998.5,655.5 C 999.5,655.5 1000.5,655.5 1001.5,655.5C 1001.73,657.716 1000.89,659.383 999,660.5C 997.212,658.977 997.045,657.31 998.5,655.5 Z"/></g>
<g><path style="opacity:1" fill="#161300" d="M 837.5,679.5 C 837.5,680.167 837.167,680.5 836.5,680.5C 833.32,680.824 832.153,679.49 833,676.5C 836.15,674.839 837.65,675.839 837.5,679.5 Z"/></g>
<g><path style="opacity:1" fill="#534a02" d="M 837.5,679.5 C 837.65,675.839 836.15,674.839 833,676.5C 832.153,679.49 833.32,680.824 836.5,680.5C 830.789,682.444 829.122,680.444 831.5,674.5C 836.774,672.787 838.774,674.454 837.5,679.5 Z"/></g>
<g><path style="opacity:1" fill="#484101" d="M 1078.5,639.5 C 1079.31,641.631 1079.81,643.964 1080,646.5C 1080.83,669.337 1080.66,692.004 1079.5,714.5C 1079.75,689.485 1079.42,664.485 1078.5,639.5 Z"/></g>
<g><path style="opacity:1" fill="#e0c700" d="M 1000.5,685.5 C 1007.95,685.413 1009.95,688.58 1006.5,695C 999.947,697.736 997.114,695.57 998,688.5C 999.045,687.627 999.878,686.627 1000.5,685.5 Z"/></g>
<g><path style="opacity:1" fill="#514802" d="M 1071.5,655.5 C 1071.49,669.021 1070.82,682.354 1069.5,695.5C 1069.28,681.968 1069.95,668.635 1071.5,655.5 Z"/></g>
<g><path style="opacity:1" fill="#d4bd00" d="M 952.5,691.5 C 956.138,690.737 957.638,692.07 957,695.5C 952.415,697.413 950.915,696.079 952.5,691.5 Z"/></g>
<g><path style="opacity:1" fill="#7a6c00" d="M 855.5,708.5 C 854.307,708.03 853.64,707.03 853.5,705.5C 853.833,704.5 854.167,703.5 854.5,702.5C 863.115,699.609 865.448,702.109 861.5,710C 859.011,710.941 857.011,710.441 855.5,708.5 Z"/></g>
<g><path style="opacity:1" fill="#292402" d="M 855.5,708.5 C 854.5,703.5 856.5,701.5 861.5,702.5C 862.5,707.5 860.5,709.5 855.5,708.5 Z"/></g>
<g><path style="opacity:1" fill="#af9c00" d="M 1153.5,745.5 C 1154.5,745.5 1155.5,745.5 1156.5,745.5C 1156.5,747.167 1156.5,748.833 1156.5,750.5C 1152.72,750.475 1151.72,748.808 1153.5,745.5 Z"/></g>
<g><path style="opacity:0.09" fill="#8c8000" d="M 1047.5,522.5 C 1049.13,523.625 1050.63,524.959 1052,526.5C 1175.47,719.14 1297.64,912.474 1418.5,1106.5C 1413.53,1100.59 1409.03,1094.25 1405,1087.5C 1286.31,898.773 1167.14,710.439 1047.5,522.5 Z"/></g>
<g><path style="opacity:1" fill="#f1d600" d="M 1142.5,763.5 C 1150.49,762.998 1152.49,766.165 1148.5,773C 1142,772.963 1140,769.797 1142.5,763.5 Z"/></g>
<g><path style="opacity:1" fill="#393303" d="M 1079.5,716.5 C 1079.17,739.006 1079.5,761.34 1080.5,783.5C 1080.5,784.167 1080.17,784.5 1079.5,784.5C 1078.51,778.021 1078.18,771.354 1078.5,764.5C 1078.17,748.325 1078.5,732.325 1079.5,716.5 Z"/></g>
<g><path style="opacity:1" fill="#9c8b00" d="M 1078.5,764.5 C 1078.18,771.354 1078.51,778.021 1079.5,784.5C 1079.44,785.043 1079.11,785.376 1078.5,785.5C 1077.18,778.344 1077.18,771.344 1078.5,764.5 Z"/></g>
<g><path style="opacity:1" fill="#b09c00" d="M 1188.5,810.5 C 1189.83,810.5 1191.17,810.5 1192.5,810.5C 1192.78,812.346 1192.11,813.68 1190.5,814.5C 1188.89,813.68 1188.22,812.346 1188.5,810.5 Z"/></g>
<g><path style="opacity:1" fill="#120f00" d="M 884.5,818.5 C 889.663,818.107 891.33,820.273 889.5,825C 884.262,825.594 882.595,823.427 884.5,818.5 Z"/></g>
<g><path style="opacity:1" fill="#161202" d="M 800.5,837.5 C 798.833,837.5 797.167,837.5 795.5,837.5C 795.5,835.5 795.5,833.5 795.5,831.5C 800.343,829.5 802.509,831.167 802,836.5C 801.617,837.056 801.117,837.389 800.5,837.5 Z"/></g>
<g><path style="opacity:1" fill="#c8b200" d="M 1068.5,797.5 C 1068.55,821.346 1067.88,845.013 1066.5,868.5C 1066.52,844.655 1067.19,820.989 1068.5,797.5 Z"/></g>
<g><path style="opacity:1" fill="#af9c00" d="M 795.5,831.5 C 795.5,833.5 795.5,835.5 795.5,837.5C 797.167,837.5 798.833,837.5 800.5,837.5C 798.44,838.811 796.274,838.811 794,837.5C 793.833,836.5 793.667,835.5 793.5,834.5C 793.64,832.97 794.307,831.97 795.5,831.5 Z"/></g>
<g><path style="opacity:1" fill="#a59300" d="M 825.5,842.5 C 828.355,841.197 831.355,841.197 834.5,842.5C 835.127,843.417 835.461,844.417 835.5,845.5C 832.671,843.022 829.338,842.022 825.5,842.5 Z"/></g>
<g><path style="opacity:1" fill="#0f0c01" d="M 825.5,842.5 C 829.338,842.022 832.671,843.022 835.5,845.5C 838.17,854.037 835.17,858.204 826.5,858C 821.918,854.606 820.418,850.106 822,844.5C 822.816,843.177 823.983,842.511 825.5,842.5 Z"/></g>
<g><path style="opacity:1" fill="#050400" d="M 940.5,930.5 C 943.5,934.167 946.833,937.5 950.5,940.5C 951.5,941.833 952.5,943.167 953.5,944.5C 954.833,946.5 956.5,948.167 958.5,949.5C 960.833,952.5 963.5,955.167 966.5,957.5C 972.889,964.891 979.889,971.557 987.5,977.5C 991.519,981.521 995.186,985.854 998.5,990.5C 991.527,997.16 985.527,1004.49 980.5,1012.5C 978.336,1014.82 976.669,1017.49 975.5,1020.5C 973.674,1022.15 972.34,1024.15 971.5,1026.5C 969.336,1028.82 967.669,1031.49 966.5,1034.5C 964.336,1036.82 962.669,1039.49 961.5,1042.5C 959.336,1044.82 957.669,1047.49 956.5,1050.5C 954.336,1052.82 952.669,1055.49 951.5,1058.5C 946.497,1064.5 942.497,1071.16 939.5,1078.5C 937.166,1084.67 934.166,1090.5 930.5,1096C 916.477,1094.63 902.477,1092.8 888.5,1090.5C 885.054,1089.31 881.387,1088.65 877.5,1088.5C 872.822,1087.83 868.156,1087 863.5,1086C 862.62,1084.64 862.286,1083.14 862.5,1081.5C 870.577,1081.14 878.577,1080.47 886.5,1079.5C 896.172,1079.67 905.839,1079.5 915.5,1079C 930.565,1054.35 946.232,1030.18 962.5,1006.5C 964.587,1005.42 965.92,1003.75 966.5,1001.5C 968.244,998.249 970.578,995.415 973.5,993C 972.685,991.02 971.352,989.52 969.5,988.5C 959.5,977.833 949.167,967.5 938.5,957.5C 936.234,953.564 933.234,950.231 929.5,947.5C 919.152,935.976 909.152,924.143 899.5,912C 892.354,913.216 885.687,915.716 879.5,919.5C 875.873,920.321 872.54,921.654 869.5,923.5C 853.004,928.549 837.004,934.549 821.5,941.5C 811.488,944.059 801.822,947.392 792.5,951.5C 784.214,953.987 776.214,956.987 768.5,960.5C 762.21,962.32 756.21,964.654 750.5,967.5C 744.88,968.987 739.547,970.987 734.5,973.5C 731.603,974.129 728.936,975.129 726.5,976.5C 723.808,977.009 721.308,978.009 719,979.5C 718.333,1013.17 718.333,1046.83 719,1080.5C 720.098,1091.99 721.265,1103.32 722.5,1114.5C 723.832,1130.83 725.166,1147.16 726.5,1163.5C 726.438,1171.02 726.772,1178.52 727.5,1186C 727.533,1188.61 728.2,1190.78 729.5,1192.5C 736.489,1193.28 743.489,1193.94 750.5,1194.5C 756.209,1196.5 762.209,1197.5 768.5,1197.5C 775.251,1199.32 782.251,1200.32 789.5,1200.5C 803.18,1201.33 816.846,1202.33 830.5,1203.5C 845.301,1205.43 860.301,1206.76 875.5,1207.5C 876.833,1207.5 878.167,1207.5 879.5,1207.5C 908.613,1210.78 937.946,1213.11 967.5,1214.5C 972.316,1215.33 977.316,1215.83 982.5,1216C 984.504,1218.84 985.004,1222.01 984,1225.5C 981.714,1239.22 979.214,1252.88 976.5,1266.5C 975.402,1272.98 974.735,1279.65 974.5,1286.5C 974.5,1287.17 974.5,1287.83 974.5,1288.5C 973.263,1293.96 972.596,1299.63 972.5,1305.5C 972.007,1307.81 971.674,1310.14 971.5,1312.5C 970.095,1322.3 969.428,1332.3 969.5,1342.5C 968.707,1354.86 967.707,1367.19 966.5,1379.5C 965.01,1386.97 964.01,1394.63 963.5,1402.5C 963.67,1403.82 963.337,1404.99 962.5,1406C 959.135,1406.51 956.135,1407.67 953.5,1409.5C 945.845,1410.25 938.511,1411.92 931.5,1414.5C 915.968,1418.22 900.634,1422.55 885.5,1427.5C 871.341,1431 857.674,1435.66 844.5,1441.5C 839.265,1443.13 834.265,1445.13 829.5,1447.5C 825.873,1448.32 822.54,1449.65 819.5,1451.5C 815.407,1452.38 811.74,1454.05 808.5,1456.5C 805.843,1456.93 803.509,1457.93 801.5,1459.5C 798.843,1459.93 796.509,1460.93 794.5,1462.5C 789.902,1463.47 785.902,1465.47 782.5,1468.5C 779.375,1470.81 775.875,1472.48 772,1473.5C 769.743,1472.25 767.743,1470.59 766,1468.5C 748.842,1440.35 730.509,1413.02 711,1386.5C 709.186,1384.28 708.686,1381.95 709.5,1379.5C 730.311,1397.81 750.311,1416.98 769.5,1437C 788.624,1433.24 807.624,1428.74 826.5,1423.5C 828.898,1423.74 830.898,1423.07 832.5,1421.5C 836.8,1421.25 840.8,1420.25 844.5,1418.5C 852.604,1417.75 860.271,1415.75 867.5,1412.5C 872.833,1411.5 878.167,1410.5 883.5,1409.5C 885.898,1409.74 887.898,1409.07 889.5,1407.5C 895.094,1406.77 900.427,1405.43 905.5,1403.5C 908.152,1403.59 910.485,1402.92 912.5,1401.5C 921.885,1399.65 931.218,1397.49 940.5,1395C 942.302,1390.36 943.302,1385.53 943.5,1380.5C 945.414,1366.04 946.748,1351.37 947.5,1336.5C 947.5,1336.17 947.5,1335.83 947.5,1335.5C 949.492,1324.97 951.492,1314.3 953.5,1303.5C 955.384,1290.86 957.051,1278.19 958.5,1265.5C 959.513,1258.01 960.18,1250.34 960.5,1242.5C 960.5,1239.17 960.5,1235.83 960.5,1232.5C 941.486,1232.69 922.486,1232.36 903.5,1231.5C 901.369,1230.69 899.036,1230.19 896.5,1230C 888.841,1229.5 881.174,1229.33 873.5,1229.5C 864.374,1228.01 855.041,1227.34 845.5,1227.5C 838.49,1227.33 831.49,1227 824.5,1226.5C 813.426,1224.19 802.093,1223.19 790.5,1223.5C 771.322,1221.85 752.322,1219.85 733.5,1217.5C 727.444,1215.55 721.111,1214.55 714.5,1214.5C 708.088,1215.27 704.088,1212.61 702.5,1206.5C 702.5,1193.83 702.5,1181.17 702.5,1168.5C 702.667,1142.5 702.5,1116.5 702,1090.5C 701.608,1086.47 701.108,1082.47 700.5,1078.5C 700.58,1065.93 699.58,1053.6 697.5,1041.5C 695.922,1020.87 695.255,1000.2 695.5,979.5C 696.272,975.25 696.772,970.917 697,966.5C 698.167,965.333 699.333,964.167 700.5,963C 720.722,958.529 740.389,952.363 759.5,944.5C 765.865,941.567 772.532,939.234 779.5,937.5C 784.272,936.801 788.605,935.134 792.5,932.5C 794.421,931.637 796.421,930.971 798.5,930.5C 802.915,930.139 806.915,928.806 810.5,926.5C 841.475,913.04 872.808,899.707 904.5,886.5C 912.179,895.358 919.346,904.691 926,914.5C 930.699,920.029 935.532,925.362 940.5,930.5 Z"/></g>
<g><path style="opacity:1" fill="#b3a000" d="M 879.5,919.5 C 877.109,922.917 873.775,924.25 869.5,923.5C 872.54,921.654 875.873,920.321 879.5,919.5 Z"/></g>
<g><path style="opacity:1" fill="#463f05" d="M 810.5,926.5 C 806.915,928.806 802.915,930.139 798.5,930.5C 802.085,928.194 806.085,926.861 810.5,926.5 Z"/></g>
<g><path style="opacity:1" fill="#a49200" d="M 940.5,930.5 C 944.833,932.833 948.167,936.167 950.5,940.5C 946.833,937.5 943.5,934.167 940.5,930.5 Z"/></g>
<g><path style="opacity:1" fill="#867801" d="M 869.5,923.5 C 853.996,930.451 837.996,936.451 821.5,941.5C 837.004,934.549 853.004,928.549 869.5,923.5 Z"/></g>
<g><path style="opacity:1" fill="#3d3706" d="M 792.5,932.5 C 788.605,935.134 784.272,936.801 779.5,937.5C 781.833,936.167 784.167,934.833 786.5,933.5C 788.435,932.85 790.435,932.517 792.5,932.5 Z"/></g>
<g><path style="opacity:1" fill="#cab400" d="M 786.5,933.5 C 784.167,934.833 781.833,936.167 779.5,937.5C 772.532,939.234 765.865,941.567 759.5,944.5C 759.369,943.624 759.702,942.957 760.5,942.5C 763.088,941.806 765.421,940.64 767.5,939C 773.704,936.654 780.037,934.82 786.5,933.5 Z"/></g>
<g><path style="opacity:1" fill="#8a7b00" d="M 680.5,937.5 C 682.017,937.511 683.184,938.177 684,939.5C 685.987,948.509 682.487,951.676 673.5,949C 670.617,944.731 670.95,940.731 674.5,937C 676.712,936.211 678.712,936.378 680.5,937.5 Z"/></g>
<g><path style="opacity:1" fill="#151200" d="M 682.5,940.5 C 683.147,941.274 683.48,942.274 683.5,943.5C 683.66,945.355 682.993,946.688 681.5,947.5C 674.842,948.656 672.842,946.156 675.5,940C 677.885,939.444 680.218,939.61 682.5,940.5 Z"/></g>
<g><path style="opacity:1" fill="#484001" d="M 680.5,937.5 C 681.167,938.5 681.833,939.5 682.5,940.5C 680.218,939.61 677.885,939.444 675.5,940C 672.842,946.156 674.842,948.656 681.5,947.5C 679.372,948.629 677.039,948.796 674.5,948C 670.698,941.287 672.698,937.787 680.5,937.5 Z"/></g>
<g><path style="opacity:1" fill="#7a6d00" d="M 953.5,944.5 C 956.167,945.167 957.833,946.833 958.5,949.5C 956.5,948.167 954.833,946.5 953.5,944.5 Z"/></g>
<g><path style="opacity:1" fill="#7c6e00" d="M 929.5,947.5 C 933.234,950.231 936.234,953.564 938.5,957.5C 934.766,954.769 931.766,951.436 929.5,947.5 Z"/></g>
<g><path style="opacity:1" fill="#9b8a00" d="M 821.5,941.5 C 812.178,945.608 802.512,948.941 792.5,951.5C 801.822,947.392 811.488,944.059 821.5,941.5 Z"/></g>
<g><path style="opacity:1" fill="#9e8c00" d="M 966.5,957.5 C 974.111,963.443 981.111,970.109 987.5,977.5C 979.889,971.557 972.889,964.891 966.5,957.5 Z"/></g>
<g><path style="opacity:1" fill="#786b00" d="M 938.5,957.5 C 949.167,967.5 959.5,977.833 969.5,988.5C 958.92,979.424 948.754,969.758 939,959.5C 938.536,958.906 938.369,958.239 938.5,957.5 Z"/></g>
<g><path style="opacity:1" fill="#bda800" d="M 768.5,960.5 C 763.269,964.648 757.269,966.982 750.5,967.5C 756.21,964.654 762.21,962.32 768.5,960.5 Z"/></g>
<g><path style="opacity:1" fill="#988701" d="M 734.5,973.5 C 732.383,975.655 729.716,976.655 726.5,976.5C 728.936,975.129 731.603,974.129 734.5,973.5 Z"/></g>
<g><path style="opacity:1" fill="#615704" d="M 966.5,1001.5 C 965.92,1003.75 964.587,1005.42 962.5,1006.5C 963.08,1004.25 964.413,1002.58 966.5,1001.5 Z"/></g>
<g><path style="opacity:1" fill="#e2c900" d="M 726.5,976.5 C 725,978.179 723.167,979.512 721,980.5C 720.06,1025.19 720.56,1069.86 722.5,1114.5C 721.265,1103.32 720.098,1091.99 719,1080.5C 718.333,1046.83 718.333,1013.17 719,979.5C 721.308,978.009 723.808,977.009 726.5,976.5 Z"/></g>
<g><path style="opacity:1" fill="#9d8c00" d="M 980.5,1012.5 C 980.464,1016.2 978.797,1018.87 975.5,1020.5C 976.669,1017.49 978.336,1014.82 980.5,1012.5 Z"/></g>
<g><path style="opacity:1" fill="#928201" d="M 971.5,1026.5 C 971.464,1030.2 969.797,1032.87 966.5,1034.5C 967.669,1031.49 969.336,1028.82 971.5,1026.5 Z"/></g>
<g><path style="opacity:1" fill="#958500" d="M 966.5,1034.5 C 966.464,1038.2 964.797,1040.87 961.5,1042.5C 962.669,1039.49 964.336,1036.82 966.5,1034.5 Z"/></g>
<g><path style="opacity:1" fill="#524903" d="M 1176.5,1002.5 C 1175.96,1020.5 1175.63,1038.5 1175.5,1056.5C 1174.26,1038.48 1174.59,1020.48 1176.5,1002.5 Z"/></g>
<g><path style="opacity:1" fill="#443d01" d="M 1187.5,1036.5 C 1187.5,1040.17 1187.5,1043.83 1187.5,1047.5C 1188.5,1047.5 1189.5,1047.5 1190.5,1047.5C 1189.43,1048.43 1188.1,1048.77 1186.5,1048.5C 1186.18,1044.3 1186.52,1040.3 1187.5,1036.5 Z"/></g>
<g><path style="opacity:1" fill="#928201" d="M 961.5,1042.5 C 961.464,1046.2 959.797,1048.87 956.5,1050.5C 957.669,1047.49 959.336,1044.82 961.5,1042.5 Z"/></g>
<g><path style="opacity:1" fill="#948401" d="M 956.5,1050.5 C 956.464,1054.2 954.797,1056.87 951.5,1058.5C 952.669,1055.49 954.336,1052.82 956.5,1050.5 Z"/></g>
<g><path style="opacity:1" fill="#5c5202" d="M 697.5,1041.5 C 699.58,1053.6 700.58,1065.93 700.5,1078.5C 699.11,1066.35 698.11,1054.01 697.5,1041.5 Z"/></g>
<g><path style="opacity:1" fill="#b39f00" d="M 695.5,979.5 C 695.255,1000.2 695.922,1020.87 697.5,1041.5C 698.11,1054.01 699.11,1066.35 700.5,1078.5C 701.108,1082.47 701.608,1086.47 702,1090.5C 702.5,1116.5 702.667,1142.5 702.5,1168.5C 701.833,1150.83 701.167,1133.17 700.5,1115.5C 699.093,1084.81 697.26,1054.14 695,1023.5C 694.172,1008.66 694.339,993.994 695.5,979.5 Z"/></g>
<g><path style="opacity:1" fill="#978600" d="M 962.5,1006.5 C 946.232,1030.18 930.565,1054.35 915.5,1079C 905.839,1079.5 896.172,1079.67 886.5,1079.5C 895.675,1078.83 905.009,1078.17 914.5,1077.5C 926,1059.17 937.5,1040.83 949,1022.5C 952.989,1016.68 957.489,1011.35 962.5,1006.5 Z"/></g>
<g><path style="opacity:1" fill="#ab9800" d="M 951.5,1058.5 C 950.964,1061.55 950.131,1064.55 949,1067.5C 945.818,1071.23 942.651,1074.9 939.5,1078.5C 942.497,1071.16 946.497,1064.5 951.5,1058.5 Z"/></g>
<g><path style="opacity:1" fill="#8e7e01" d="M 877.5,1088.5 C 881.387,1088.65 885.054,1089.31 888.5,1090.5C 884.542,1090.75 880.876,1090.08 877.5,1088.5 Z"/></g>
<g><path style="opacity:1" fill="#100d01" d="M 1100.5,1095.5 C 1098.52,1097.17 1096.19,1097.83 1093.5,1097.5C 1089.99,1095.09 1089.65,1092.26 1092.5,1089C 1098.33,1087.33 1101,1089.5 1100.5,1095.5 Z"/></g>
<g><path style="opacity:1" fill="#968600" d="M 1100.5,1095.5 C 1100.59,1096.5 1100.25,1097.33 1099.5,1098C 1097.29,1098.79 1095.29,1098.62 1093.5,1097.5C 1096.19,1097.83 1098.52,1097.17 1100.5,1095.5 Z"/></g>
<g><path style="opacity:1" fill="#655901" d="M 1301.5,1099.5 C 1302.5,1099.5 1303.5,1099.5 1304.5,1099.5C 1304.5,1100.5 1304.5,1101.5 1304.5,1102.5C 1303.5,1102.5 1302.5,1102.5 1301.5,1102.5C 1301.5,1101.5 1301.5,1100.5 1301.5,1099.5 Z"/></g>
<g><path style="opacity:1" fill="#928200" d="M 1063.5,1114.5 C 1066.06,1114.2 1068.39,1114.53 1070.5,1115.5C 1062.34,1114.5 1056.84,1117.84 1054,1125.5C 1053.33,1129.5 1053.33,1133.5 1054,1137.5C 1056.06,1139.3 1057.9,1141.3 1059.5,1143.5C 1056.64,1142.81 1054.47,1141.14 1053,1138.5C 1049.69,1127.21 1053.19,1119.21 1063.5,1114.5 Z"/></g>
<g><path style="opacity:1" fill="#070500" d="M 1070.5,1115.5 C 1080.1,1117.75 1084.76,1123.75 1084.5,1133.5C 1084.88,1135.7 1084.21,1137.36 1082.5,1138.5C 1080.52,1141.96 1077.52,1144.13 1073.5,1145C 1068.68,1145.78 1064.02,1145.28 1059.5,1143.5C 1057.9,1141.3 1056.06,1139.3 1054,1137.5C 1053.33,1133.5 1053.33,1129.5 1054,1125.5C 1056.84,1117.84 1062.34,1114.5 1070.5,1115.5 Z"/></g>
<g><path style="opacity:1" fill="#cbb500" d="M 1063.5,1114.5 C 1069.56,1113.42 1075.56,1114.26 1081.5,1117C 1085.45,1122.04 1086.45,1127.54 1084.5,1133.5C 1084.76,1123.75 1080.1,1117.75 1070.5,1115.5C 1068.39,1114.53 1066.06,1114.2 1063.5,1114.5 Z"/></g>
<g><path style="opacity:0.145" fill="#141100" d="M 598.5,972.5 C 599.043,972.56 599.376,972.893 599.5,973.5C 598.667,975.167 597.833,976.833 597,978.5C 553.426,1047.83 509.592,1116.83 465.5,1185.5C 465.5,1185.17 465.5,1184.83 465.5,1184.5C 509.05,1113.3 553.383,1042.63 598.5,972.5 Z"/></g>
<g><path style="opacity:1" fill="#594f01" d="M 1326.5,1129.5 C 1321.51,1127.52 1319.67,1123.85 1321,1118.5C 1326.25,1111.92 1331.59,1111.92 1337,1118.5C 1338.52,1127.47 1335.02,1131.14 1326.5,1129.5 Z"/></g>
<g><path style="opacity:1" fill="#f2d700" d="M 1326.5,1129.5 C 1321.68,1125.29 1321.35,1120.79 1325.5,1116C 1333.17,1114.67 1336.67,1117.84 1336,1125.5C 1333.59,1128.62 1330.43,1129.95 1326.5,1129.5 Z"/></g>
<g><path style="opacity:1" fill="#514804" d="M 534.5,1130.5 C 538.908,1130.06 540.575,1132.06 539.5,1136.5C 534.074,1137.42 532.407,1135.42 534.5,1130.5 Z"/></g>
<g><path style="opacity:1" fill="#776a00" d="M 1082.5,1138.5 C 1081.68,1142.82 1079.01,1145.32 1074.5,1146C 1070.83,1146.67 1067.17,1146.67 1063.5,1146C 1061.68,1145.8 1060.35,1144.97 1059.5,1143.5C 1064.02,1145.28 1068.68,1145.78 1073.5,1145C 1077.52,1144.13 1080.52,1141.96 1082.5,1138.5 Z"/></g>
<g><path style="opacity:1" fill="#342e03" d="M 598.5,1170.5 C 596.958,1171.3 595.292,1171.63 593.5,1171.5C 592.659,1169.62 592.325,1167.62 592.5,1165.5C 596.938,1164.43 598.938,1166.09 598.5,1170.5 Z"/></g>
<g><path style="opacity:1" fill="#0b0800" d="M 1102.5,1178.5 C 1099.42,1181.19 1095.75,1182.19 1091.5,1181.5C 1090.83,1180.17 1089.83,1179.17 1088.5,1178.5C 1088.03,1174.84 1088.7,1171.5 1090.5,1168.5C 1100.29,1164.96 1104.29,1168.29 1102.5,1178.5 Z"/></g>
<g><path style="opacity:1" fill="#918100" d="M 598.5,1170.5 C 598.938,1166.09 596.938,1164.43 592.5,1165.5C 592.325,1167.62 592.659,1169.62 593.5,1171.5C 592.275,1170.85 591.608,1169.68 591.5,1168C 591.451,1163.85 593.451,1162.52 597.5,1164C 599.608,1166.02 599.942,1168.18 598.5,1170.5 Z"/></g>
<g><path style="opacity:1" fill="#cbb500" d="M 945.5,1164.5 C 944.5,1164.5 943.5,1164.5 942.5,1164.5C 942.261,1162.53 942.594,1160.7 943.5,1159C 947.467,1154.52 951.633,1154.35 956,1158.5C 956.167,1159.5 956.333,1160.5 956.5,1161.5C 955.825,1164.18 955.158,1166.84 954.5,1169.5C 949.882,1170.36 946.882,1168.69 945.5,1164.5 Z"/></g>
<g><path style="opacity:1" fill="#191501" d="M 954.5,1159.5 C 955.822,1164.99 953.822,1167.49 948.5,1167C 947.619,1166.29 946.953,1165.46 946.5,1164.5C 946.566,1158.81 949.232,1157.14 954.5,1159.5 Z"/></g>
<g><path style="opacity:1" fill="#635800" d="M 954.5,1159.5 C 949.232,1157.14 946.566,1158.81 946.5,1164.5C 946.167,1164.5 945.833,1164.5 945.5,1164.5C 945.002,1158.5 947.669,1156.33 953.5,1158C 954.056,1158.38 954.389,1158.88 954.5,1159.5 Z"/></g>
<g><path style="opacity:1" fill="#252004" d="M 493.5,1165.5 C 498.894,1164.55 500.561,1166.55 498.5,1171.5C 492.74,1173.21 491.074,1171.21 493.5,1165.5 Z"/></g>
<g><path style="opacity:1" fill="#9c8b00" d="M 1090.5,1168.5 C 1088.7,1171.5 1088.03,1174.84 1088.5,1178.5C 1086.62,1176.2 1086.12,1173.54 1087,1170.5C 1087.82,1169.18 1088.98,1168.51 1090.5,1168.5 Z"/></g>
<g><path style="opacity:1" fill="#c5af00" d="M 1212.5,1172.5 C 1213.83,1172.5 1215.17,1172.5 1216.5,1172.5C 1216.5,1173.5 1216.5,1174.5 1216.5,1175.5C 1215.17,1175.5 1213.83,1175.5 1212.5,1175.5C 1212.5,1174.5 1212.5,1173.5 1212.5,1172.5 Z"/></g>
<g><path style="opacity:1" fill="#d1ba00" d="M 700.5,1115.5 C 701.167,1133.17 701.833,1150.83 702.5,1168.5C 702.5,1181.17 702.5,1193.83 702.5,1206.5C 700.96,1176.35 700.293,1146.01 700.5,1115.5 Z"/></g>
<g><path style="opacity:1" fill="#5b5103" d="M 1102.5,1178.5 C 1102.49,1180.02 1101.82,1181.18 1100.5,1182C 1097.3,1182.8 1094.3,1182.64 1091.5,1181.5C 1095.75,1182.19 1099.42,1181.19 1102.5,1178.5 Z"/></g>
<g><path style="opacity:1" fill="#4c4404" d="M 726.5,1163.5 C 727.412,1172.84 728.412,1182.17 729.5,1191.5C 729.5,1191.83 729.5,1192.17 729.5,1192.5C 728.2,1190.78 727.533,1188.61 727.5,1186C 726.772,1178.52 726.438,1171.02 726.5,1163.5 Z"/></g>
<g><path style="opacity:0.067" fill="#d8afff" d="M 465.5,1184.5 C 465.5,1184.83 465.5,1185.17 465.5,1185.5C 464.299,1187.91 462.633,1189.91 460.5,1191.5C 460.969,1188.36 462.636,1186.02 465.5,1184.5 Z"/></g>
<g><path style="opacity:1" fill="#0c0a00" d="M 561.5,1187.5 C 562.492,1187.33 563.158,1187.66 563.5,1188.5C 566.136,1192.27 566.136,1196.1 563.5,1200C 559.374,1202.31 555.707,1201.81 552.5,1198.5C 550.65,1191.01 553.65,1187.34 561.5,1187.5 Z"/></g>
<g><path style="opacity:1" fill="#998801" d="M 729.5,1192.5 C 729.5,1192.17 729.5,1191.83 729.5,1191.5C 736.749,1191.68 743.749,1192.68 750.5,1194.5C 743.489,1193.94 736.489,1193.28 729.5,1192.5 Z"/></g>
<g><path style="opacity:1" fill="#726500" d="M 561.5,1187.5 C 553.65,1187.34 550.65,1191.01 552.5,1198.5C 549.473,1194.21 550.14,1190.37 554.5,1187C 557.039,1186.2 559.372,1186.37 561.5,1187.5 Z"/></g>
<g><path style="opacity:0.035" fill="#d2adff" d="M 460.5,1195.5 C 462.89,1196.89 464.557,1198.89 465.5,1201.5C 465.5,1201.83 465.5,1202.17 465.5,1202.5C 462.636,1200.98 460.969,1198.64 460.5,1195.5 Z"/></g>
<g><path style="opacity:1" fill="#807201" d="M 768.5,1197.5 C 775.511,1198.06 782.511,1198.72 789.5,1199.5C 789.5,1199.83 789.5,1200.17 789.5,1200.5C 782.251,1200.32 775.251,1199.32 768.5,1197.5 Z"/></g>
<g><path style="opacity:1" fill="#c2ad00" d="M 789.5,1200.5 C 789.5,1200.17 789.5,1199.83 789.5,1199.5C 806.373,1200.05 823.04,1201.38 839.5,1203.5C 836.5,1203.5 833.5,1203.5 830.5,1203.5C 816.846,1202.33 803.18,1201.33 789.5,1200.5 Z"/></g>
<g><path style="opacity:1" fill="#807200" d="M 563.5,1188.5 C 566.525,1189.03 567.858,1190.87 567.5,1194C 566.675,1201.37 562.675,1204.37 555.5,1203C 553.859,1201.87 552.859,1200.37 552.5,1198.5C 555.707,1201.81 559.374,1202.31 563.5,1200C 566.136,1196.1 566.136,1192.27 563.5,1188.5 Z"/></g>
<g><path style="opacity:1" fill="#716502" d="M 830.5,1203.5 C 833.5,1203.5 836.5,1203.5 839.5,1203.5C 851.718,1204.18 863.718,1205.51 875.5,1207.5C 860.301,1206.76 845.301,1205.43 830.5,1203.5 Z"/></g>
<g><path style="opacity:1" fill="#746702" d="M 879.5,1207.5 C 909.043,1209.03 938.376,1211.36 967.5,1214.5C 937.946,1213.11 908.613,1210.78 879.5,1207.5 Z"/></g>
<g><path style="opacity:1" fill="#484107" d="M 714.5,1214.5 C 721.111,1214.55 727.444,1215.55 733.5,1217.5C 726.902,1217.38 720.569,1216.38 714.5,1214.5 Z"/></g>
<g><path style="opacity:1" fill="#edd300" d="M 1310.5,1221.5 C 1318.15,1221.31 1321.31,1224.98 1320,1232.5C 1316.61,1236.03 1312.94,1236.37 1309,1233.5C 1306.66,1229.05 1307.16,1225.05 1310.5,1221.5 Z"/></g>
<g><path style="opacity:1" fill="#363005" d="M 790.5,1223.5 C 802.093,1223.19 813.426,1224.19 824.5,1226.5C 819.167,1226.17 813.833,1225.83 808.5,1225.5C 802.301,1225.35 796.301,1224.68 790.5,1223.5 Z"/></g>
<g><path style="opacity:1" fill="#bca700" d="M 808.5,1225.5 C 813.833,1225.83 819.167,1226.17 824.5,1226.5C 831.49,1227 838.49,1227.33 845.5,1227.5C 849.5,1228.17 853.5,1228.83 857.5,1229.5C 842.143,1229.18 826.809,1228.35 811.5,1227C 810.263,1226.77 809.263,1226.27 808.5,1225.5 Z"/></g>
<g><path style="opacity:1" fill="#4d4503" d="M 845.5,1227.5 C 855.041,1227.34 864.374,1228.01 873.5,1229.5C 872.5,1229.5 871.5,1229.5 870.5,1229.5C 866.167,1229.5 861.833,1229.5 857.5,1229.5C 853.5,1228.83 849.5,1228.17 845.5,1227.5 Z"/></g>
<g><path style="opacity:1" fill="#baa600" d="M 870.5,1229.5 C 871.5,1229.5 872.5,1229.5 873.5,1229.5C 881.174,1229.33 888.841,1229.5 896.5,1230C 899.036,1230.19 901.369,1230.69 903.5,1231.5C 892.315,1231.38 881.315,1230.71 870.5,1229.5 Z"/></g>
<g><path style="opacity:1" fill="#dbc300" d="M 1290.5,1240.5 C 1294.91,1240.06 1296.57,1242.06 1295.5,1246.5C 1293.5,1246.5 1291.5,1246.5 1289.5,1246.5C 1289.33,1244.38 1289.66,1242.38 1290.5,1240.5 Z"/></g>
<g><path style="opacity:1" fill="#887900" d="M 960.5,1242.5 C 960.18,1250.34 959.513,1258.01 958.5,1265.5C 958.136,1257.6 958.803,1249.93 960.5,1242.5 Z"/></g>
<g><path style="opacity:0.333" fill="#8c7f00" d="M 1418.5,1108.5 C 1297.64,1302.53 1175.47,1495.86 1052,1688.5C 1050.63,1690.04 1049.13,1691.37 1047.5,1692.5C 1168.81,1501.89 1289.64,1310.89 1410,1119.5C 1412.37,1115.4 1415.2,1111.74 1418.5,1108.5 Z"/></g>
<g><path style="opacity:1" fill="#d7bf00" d="M 685.5,1282.5 C 687.705,1280.64 689.039,1278.3 689.5,1275.5C 690.076,1271.89 689.076,1268.89 686.5,1266.5C 681.381,1262.08 677.048,1262.74 673.5,1268.5C 670.687,1272.11 671.021,1275.45 674.5,1278.5C 674.511,1280.02 675.177,1281.18 676.5,1282C 678.81,1282.5 681.143,1282.66 683.5,1282.5C 677.886,1284.68 673.552,1283.18 670.5,1278C 669.507,1275.55 669.34,1273.05 670,1270.5C 671.481,1267.89 672.648,1265.22 673.5,1262.5C 686.986,1260.05 692.486,1265.72 690,1279.5C 688.871,1281.14 687.371,1282.14 685.5,1282.5 Z"/></g>
<g><path style="opacity:1" fill="#090700" d="M 686.5,1266.5 C 689.076,1268.89 690.076,1271.89 689.5,1275.5C 685.5,1282 680.5,1283 674.5,1278.5C 673.676,1275.24 673.342,1271.9 673.5,1268.5C 677.406,1265.42 681.739,1264.75 686.5,1266.5 Z"/></g>
<g><path style="opacity:1" fill="#6a5e00" d="M 686.5,1266.5 C 681.739,1264.75 677.406,1265.42 673.5,1268.5C 677.048,1262.74 681.381,1262.08 686.5,1266.5 Z"/></g>
<g><path style="opacity:1" fill="#5c5201" d="M 673.5,1268.5 C 673.342,1271.9 673.676,1275.24 674.5,1278.5C 671.021,1275.45 670.687,1272.11 673.5,1268.5 Z"/></g>
<g><path style="opacity:1" fill="#796c00" d="M 689.5,1275.5 C 689.039,1278.3 687.705,1280.64 685.5,1282.5C 684.833,1282.5 684.167,1282.5 683.5,1282.5C 681.143,1282.66 678.81,1282.5 676.5,1282C 675.177,1281.18 674.511,1280.02 674.5,1278.5C 680.5,1283 685.5,1282 689.5,1275.5 Z"/></g>
<g><path style="opacity:1" fill="#b29e00" d="M 976.5,1266.5 C 976.666,1272.18 976.499,1277.84 976,1283.5C 975.768,1284.74 975.268,1285.74 974.5,1286.5C 974.735,1279.65 975.402,1272.98 976.5,1266.5 Z"/></g>
<g><path style="opacity:1" fill="#8f7f00" d="M 702.5,1294.5 C 707.486,1294.3 709.152,1296.47 707.5,1301C 701.741,1302.14 700.074,1299.97 702.5,1294.5 Z"/></g>
<g><path style="opacity:1" fill="#b4a000" d="M 974.5,1288.5 C 974.666,1293.84 974.499,1299.18 974,1304.5C 973.617,1305.06 973.117,1305.39 972.5,1305.5C 972.596,1299.63 973.263,1293.96 974.5,1288.5 Z"/></g>
<g><path style="opacity:1" fill="#edd300" d="M 1163.5,1304.5 C 1173.49,1303.33 1176.15,1307.17 1171.5,1316C 1165.15,1319.29 1161.49,1317.46 1160.5,1310.5C 1160.63,1308.05 1161.63,1306.05 1163.5,1304.5 Z"/></g>
<g><path style="opacity:1" fill="#867701" d="M 971.5,1312.5 C 971.572,1322.7 970.905,1332.7 969.5,1342.5C 969.428,1332.3 970.095,1322.3 971.5,1312.5 Z"/></g>
<g><path style="opacity:1" fill="#cab300" d="M 953.5,1303.5 C 951.492,1314.3 949.492,1324.97 947.5,1335.5C 947.903,1326.08 949.07,1316.75 951,1307.5C 951.608,1305.93 952.442,1304.6 953.5,1303.5 Z"/></g>
<g><path style="opacity:1" fill="#d0b900" d="M 947.5,1336.5 C 946.748,1351.37 945.414,1366.04 943.5,1380.5C 944.256,1366.5 945.09,1352.5 946,1338.5C 946.278,1337.58 946.778,1336.92 947.5,1336.5 Z"/></g>
<g><path style="opacity:0.261" fill="#131000" d="M 465.5,1201.5 C 500.142,1254.76 534.308,1308.43 568,1362.5C 568.74,1363.75 568.573,1364.75 567.5,1365.5C 532.752,1311.68 498.752,1257.35 465.5,1202.5C 465.5,1202.17 465.5,1201.83 465.5,1201.5 Z"/></g>
<g><path style="opacity:1" fill="#9c8b00" d="M 1089.5,1343.5 C 1089.5,1342.17 1089.5,1340.83 1089.5,1339.5C 1088.5,1339.5 1087.5,1339.5 1086.5,1339.5C 1086.5,1340.5 1086.5,1341.5 1086.5,1342.5C 1084.65,1338.51 1085.98,1337.01 1090.5,1338C 1092.08,1340.34 1091.74,1342.17 1089.5,1343.5 Z"/></g>
<g><path style="opacity:1" fill="#353004" d="M 1089.5,1343.5 C 1088.21,1343.74 1087.21,1343.4 1086.5,1342.5C 1086.5,1341.5 1086.5,1340.5 1086.5,1339.5C 1087.5,1339.5 1088.5,1339.5 1089.5,1339.5C 1089.5,1340.83 1089.5,1342.17 1089.5,1343.5 Z"/></g>
<g><path style="opacity:1" fill="#ccb500" d="M 1182.5,1340.5 C 1186.69,1340.4 1188.03,1342.24 1186.5,1346C 1181.73,1346.81 1180.39,1344.98 1182.5,1340.5 Z"/></g>
<g><path style="opacity:1" fill="#746700" d="M 1061.5,1337.5 C 1063.41,1338.08 1065.08,1339.08 1066.5,1340.5C 1067.15,1352.88 1062.15,1355.88 1051.5,1349.5C 1049.5,1344.67 1050.5,1340.51 1054.5,1337C 1057.04,1336.2 1059.37,1336.37 1061.5,1337.5 Z"/></g>
<g><path style="opacity:1" fill="#141100" d="M 1061.5,1337.5 C 1062.46,1338.96 1063.62,1340.29 1065,1341.5C 1066.5,1349.33 1063.33,1352.5 1055.5,1351C 1050.17,1346.67 1050.17,1342.33 1055.5,1338C 1057.47,1337.5 1059.47,1337.34 1061.5,1337.5 Z"/></g>
<g><path style="opacity:1" fill="#dac200" d="M 1066.5,1340.5 C 1067.12,1340.61 1067.62,1340.94 1068,1341.5C 1070.34,1352.16 1066.17,1356.66 1055.5,1355C 1052.57,1354.31 1051.24,1352.48 1051.5,1349.5C 1062.15,1355.88 1067.15,1352.88 1066.5,1340.5 Z"/></g>
<g><path style="opacity:1" fill="#786b01" d="M 966.5,1379.5 C 966.077,1386.5 965.577,1393.5 965,1400.5C 964.722,1401.42 964.222,1402.08 963.5,1402.5C 964.01,1394.63 965.01,1386.97 966.5,1379.5 Z"/></g>
<g><path style="opacity:1" fill="#8d7d00" d="M 912.5,1401.5 C 910.485,1402.92 908.152,1403.59 905.5,1403.5C 907.515,1402.08 909.848,1401.41 912.5,1401.5 Z"/></g>
<g><path style="opacity:1" fill="#665b01" d="M 889.5,1407.5 C 887.898,1409.07 885.898,1409.74 883.5,1409.5C 885.102,1407.93 887.102,1407.26 889.5,1407.5 Z"/></g>
<g><path style="opacity:1" fill="#cbb500" d="M 953.5,1409.5 C 946.634,1412.71 939.301,1414.38 931.5,1414.5C 938.511,1411.92 945.845,1410.25 953.5,1409.5 Z"/></g>
<g><path style="opacity:1" fill="#9e8d00" d="M 867.5,1412.5 C 860.271,1415.75 852.604,1417.75 844.5,1418.5C 851.996,1416.26 859.663,1414.26 867.5,1412.5 Z"/></g>
<g><path style="opacity:1" fill="#766900" d="M 832.5,1421.5 C 830.898,1423.07 828.898,1423.74 826.5,1423.5C 828.102,1421.93 830.102,1421.26 832.5,1421.5 Z"/></g>
<g><path style="opacity:1" fill="#5f5503" d="M 659.5,1424.5 C 670.326,1423.13 674.493,1427.8 672,1438.5C 667.874,1442.96 663.208,1443.63 658,1440.5C 654.331,1434.7 654.831,1429.37 659.5,1424.5 Z"/></g>
<g><path style="opacity:1" fill="#0a0800" d="M 660.5,1425.5 C 669.207,1425.04 672.707,1429.04 671,1437.5C 666.555,1442.75 662.388,1442.75 658.5,1437.5C 656.774,1432.98 657.441,1428.98 660.5,1425.5 Z"/></g>
<g><path style="opacity:1" fill="#817301" d="M 885.5,1427.5 C 872.177,1432.94 858.51,1437.61 844.5,1441.5C 857.674,1435.66 871.341,1431 885.5,1427.5 Z"/></g>
<g><path style="opacity:1" fill="#c9b200" d="M 1172.5,1441.5 C 1174.17,1441.5 1175.83,1441.5 1177.5,1441.5C 1178.17,1445.5 1176.5,1447.17 1172.5,1446.5C 1172.5,1444.83 1172.5,1443.17 1172.5,1441.5 Z"/></g>
<g><path style="opacity:1" fill="#877801" d="M 844.5,1441.5 C 840.136,1444.84 835.136,1446.84 829.5,1447.5C 834.265,1445.13 839.265,1443.13 844.5,1441.5 Z"/></g>
<g><path style="opacity:1" fill="#9f8e01" d="M 829.5,1447.5 C 827.109,1450.92 823.775,1452.25 819.5,1451.5C 822.54,1449.65 825.873,1448.32 829.5,1447.5 Z"/></g>
<g><path style="opacity:1" fill="#978600" d="M 819.5,1451.5 C 816.503,1454.5 812.836,1456.16 808.5,1456.5C 811.74,1454.05 815.407,1452.38 819.5,1451.5 Z"/></g>
<g><path style="opacity:1" fill="#928200" d="M 808.5,1456.5 C 806.824,1458.83 804.491,1459.83 801.5,1459.5C 803.509,1457.93 805.843,1456.93 808.5,1456.5 Z"/></g>
<g><path style="opacity:1" fill="#8f7f00" d="M 801.5,1459.5 C 799.824,1461.83 797.491,1462.83 794.5,1462.5C 796.509,1460.93 798.843,1459.93 801.5,1459.5 Z"/></g>
<g><path style="opacity:1" fill="#b4a000" d="M 794.5,1462.5 C 791.184,1465.8 787.184,1467.8 782.5,1468.5C 785.902,1465.47 789.902,1463.47 794.5,1462.5 Z"/></g>
<g><path style="opacity:1" fill="#050400" d="M 898.5,1478.5 C 906.399,1477.46 913.066,1479.79 918.5,1485.5C 919.36,1489.43 919.693,1493.43 919.5,1497.5C 919.5,1498.17 919.5,1498.83 919.5,1499.5C 917.167,1502.5 914.5,1505.17 911.5,1507.5C 907.102,1507.71 902.768,1507.37 898.5,1506.5C 895.423,1503.43 892.756,1500.1 890.5,1496.5C 890.263,1492.73 890.763,1489.06 892,1485.5C 894.372,1483.3 896.539,1480.96 898.5,1478.5 Z"/></g>
<g><path style="opacity:1" fill="#a08e00" d="M 898.5,1478.5 C 896.539,1480.96 894.372,1483.3 892,1485.5C 890.763,1489.06 890.263,1492.73 890.5,1496.5C 887.924,1488.24 890.591,1482.24 898.5,1478.5 Z"/></g>
<g><path style="opacity:1" fill="#8c7d01" d="M 918.5,1485.5 C 920.894,1487.33 921.894,1489.83 921.5,1493C 921.431,1494.99 920.765,1496.49 919.5,1497.5C 919.693,1493.43 919.36,1489.43 918.5,1485.5 Z"/></g>
<g><path style="opacity:1" fill="#e7cd00" d="M 1025.5,1495.5 C 1032.63,1495.71 1034.29,1498.87 1030.5,1505C 1023.47,1504.76 1021.81,1501.59 1025.5,1495.5 Z"/></g>
<g><path style="opacity:1" fill="#b09d00" d="M 890.5,1496.5 C 892.756,1500.1 895.423,1503.43 898.5,1506.5C 898.611,1507.12 898.944,1507.62 899.5,1508C 903.689,1508.81 907.689,1508.65 911.5,1507.5C 914.5,1505.17 917.167,1502.5 919.5,1499.5C 919.156,1503.68 917.156,1506.85 913.5,1509C 908.5,1509.67 903.5,1509.67 898.5,1509C 895.47,1507.43 892.97,1505.27 891,1502.5C 890.505,1500.53 890.338,1498.53 890.5,1496.5 Z"/></g>
<g><path style="opacity:1" fill="#4b4304" d="M 898.5,1506.5 C 902.768,1507.37 907.102,1507.71 911.5,1507.5C 907.689,1508.65 903.689,1508.81 899.5,1508C 898.944,1507.62 898.611,1507.12 898.5,1506.5 Z"/></g>
<g><path style="opacity:1" fill="#d3bc00" d="M 1093.5,1520.5 C 1097.98,1520.8 1099.31,1522.97 1097.5,1527C 1092.57,1527.43 1091.24,1525.26 1093.5,1520.5 Z"/></g>
<g><path style="opacity:1" fill="#070600" d="M 938.5,1526.5 C 939.833,1527.5 941.167,1528.5 942.5,1529.5C 943.076,1533.11 942.076,1536.11 939.5,1538.5C 932.488,1538.48 930.155,1535.15 932.5,1528.5C 934.173,1526.91 936.173,1526.25 938.5,1526.5 Z"/></g>
<g><path style="opacity:1" fill="#796c00" d="M 938.5,1526.5 C 936.173,1526.25 934.173,1526.91 932.5,1528.5C 930.155,1535.15 932.488,1538.48 939.5,1538.5C 932.026,1539.86 928.86,1536.52 930,1528.5C 932.511,1525.7 935.345,1525.03 938.5,1526.5 Z"/></g>
<g><path style="opacity:1" fill="#6d6100" d="M 942.5,1529.5 C 943.629,1531.63 943.796,1533.96 943,1536.5C 942.184,1537.82 941.017,1538.49 939.5,1538.5C 942.076,1536.11 943.076,1533.11 942.5,1529.5 Z"/></g>
<g><path style="opacity:1" fill="#f3d800" d="M 1070.5,1548.5 C 1082.58,1547.8 1085.92,1552.96 1080.5,1564C 1072.72,1566.75 1068.39,1563.92 1067.5,1555.5C 1067.67,1554.17 1067.83,1552.83 1068,1551.5C 1069.04,1550.63 1069.88,1549.63 1070.5,1548.5 Z"/></g>
<g><path style="opacity:1" fill="#ccb500" d="M 817.5,1601.5 C 816.316,1592.75 819.982,1590.42 828.5,1594.5C 831.113,1602.72 828.113,1606.22 819.5,1605C 818.177,1604.18 817.511,1603.02 817.5,1601.5 Z"/></g>
<g><path style="opacity:1" fill="#352f04" d="M 817.5,1601.5 C 816.683,1597.18 818.349,1594.85 822.5,1594.5C 826.989,1594.83 828.489,1597.17 827,1601.5C 823.836,1604.11 820.669,1604.11 817.5,1601.5 Z"/></g>
<g><path style="opacity:0.322" fill="#8d8000" d="M 967.5,1571.5 C 968.774,1575.38 970.607,1579.05 973,1582.5C 996.771,1619.05 1020.27,1655.72 1043.5,1692.5C 1041.87,1691.37 1040.37,1690.04 1039,1688.5C 1015.06,1650.93 990.892,1613.6 966.5,1576.5C 966.216,1574.59 966.549,1572.92 967.5,1571.5 Z"/></g>
<g><path style="opacity:1" fill="#887900" d="M 836.5,1617.5 C 838.628,1616.37 840.961,1616.2 843.5,1617C 844.823,1617.82 845.489,1618.98 845.5,1620.5C 843.112,1617.92 840.112,1616.92 836.5,1617.5 Z"/></g>
<g><path style="opacity:1" fill="#0a0800" d="M 836.5,1617.5 C 840.112,1616.92 843.112,1617.92 845.5,1620.5C 847.496,1629.16 844.162,1633.16 835.5,1632.5C 829.913,1626.98 830.246,1621.98 836.5,1617.5 Z"/></g>
<g><path style="opacity:1" fill="#a79400" d="M 1041.5,1623.5 C 1043.17,1623.5 1044.83,1623.5 1046.5,1623.5C 1046.5,1625.17 1046.5,1626.83 1046.5,1628.5C 1044.83,1628.5 1043.17,1628.5 1041.5,1628.5C 1041.5,1626.83 1041.5,1625.17 1041.5,1623.5 Z"/></g>
<g><path style="opacity:1" fill="#685c02" d="M 845.5,1620.5 C 848.85,1630.47 845.517,1634.47 835.5,1632.5C 844.162,1633.16 847.496,1629.16 845.5,1620.5 Z"/></g>
</svg>
