<svg width="16" height="17" viewBox="0 0 16 17" fill="none" xmlns="http://www.w3.org/2000/svg">
<path fill-rule="evenodd" clip-rule="evenodd" d="M8.00004 9.44267L11.7714 13.214C11.8971 13.3354 12.0655 13.4026 12.2403 13.4011C12.4151 13.3996 12.5823 13.3295 12.7059 13.2059C12.8295 13.0823 12.8996 12.9151 12.9012 12.7403C12.9027 12.5655 12.8355 12.3971 12.714 12.2713L8.94271 8.5L12.714 4.72867C12.8355 4.60293 12.9027 4.43453 12.9012 4.25974C12.8996 4.08494 12.8295 3.91773 12.7059 3.79412C12.5823 3.67052 12.4151 3.60041 12.2403 3.59889C12.0655 3.59737 11.8971 3.66456 11.7714 3.786L8.00004 7.55734L4.22871 3.786C4.10241 3.66757 3.93499 3.60291 3.76187 3.60572C3.58874 3.60854 3.42351 3.67859 3.30112 3.80107C3.17873 3.92354 3.10879 4.08883 3.1061 4.26195C3.10341 4.43507 3.16819 4.60245 3.28671 4.72867L7.05738 8.5L3.28604 12.2713C3.22237 12.3328 3.17158 12.4064 3.13664 12.4877C3.1017 12.5691 3.08331 12.6566 3.08254 12.7451C3.08178 12.8336 3.09864 12.9214 3.13216 13.0033C3.16568 13.0852 3.21519 13.1597 3.27778 13.2223C3.34038 13.2849 3.41481 13.3344 3.49674 13.3679C3.57867 13.4014 3.66646 13.4183 3.75498 13.4175C3.8435 13.4167 3.93098 13.3983 4.01231 13.3634C4.09365 13.3285 4.16721 13.2777 4.22871 13.214L8.00004 9.44267Z" fill="#323749"/>
</svg>
