<svg width="12" height="11" viewBox="0 0 12 11" fill="none" xmlns="http://www.w3.org/2000/svg">
<path fill-rule="evenodd" clip-rule="evenodd" d="M0 1.08331C0 0.884401 0.0592632 0.693635 0.164752 0.552983C0.270242 0.412331 0.413316 0.333313 0.5625 0.333313H11.4375C11.5867 0.333313 11.7298 0.412331 11.8352 0.552983C11.9407 0.693635 12 0.884401 12 1.08331C12 1.28223 11.9407 1.47299 11.8352 1.61364C11.7298 1.7543 11.5867 1.83331 11.4375 1.83331H0.5625C0.413316 1.83331 0.270242 1.7543 0.164752 1.61364C0.0592632 1.47299 0 1.28223 0 1.08331ZM0 5.33331C0 5.1344 0.0592632 4.94363 0.164752 4.80298C0.270242 4.66233 0.413316 4.58331 0.5625 4.58331H11.4375C11.5867 4.58331 11.7298 4.66233 11.8352 4.80298C11.9407 4.94363 12 5.1344 12 5.33331C12 5.53223 11.9407 5.72299 11.8352 5.86364C11.7298 6.00429 11.5867 6.08331 11.4375 6.08331H0.5625C0.413316 6.08331 0.270242 6.00429 0.164752 5.86364C0.0592632 5.72299 0 5.53223 0 5.33331ZM0.5625 8.83331C0.413316 8.83331 0.270242 8.91233 0.164752 9.05298C0.0592632 9.19364 0 9.3844 0 9.58331C0 9.78223 0.0592632 9.97299 0.164752 10.1136C0.270242 10.2543 0.413316 10.3333 0.5625 10.3333H7.6875C7.83668 10.3333 7.97976 10.2543 8.08525 10.1136C8.19074 9.97299 8.25 9.78223 8.25 9.58331C8.25 9.3844 8.19074 9.19364 8.08525 9.05298C7.97976 8.91233 7.83668 8.83331 7.6875 8.83331H0.5625Z" fill="#5B5F6E"/>
</svg>
