<svg width="407" height="80" viewBox="0 0 407 80" fill="none" xmlns="http://www.w3.org/2000/svg">
<path d="M116.196 59L106.65 24.0909H110.946L118.241 52.5227H118.582L126.014 24.0909H130.787L138.218 52.5227H138.559L145.855 24.0909H150.15L140.605 59H136.241L128.537 31.1818H128.264L120.559 59H116.196ZM162.889 59.5455C160.366 59.5455 158.19 58.9886 156.361 57.875C154.542 56.75 153.139 55.1818 152.15 53.1705C151.173 51.1477 150.684 48.7955 150.684 46.1136C150.684 43.4318 151.173 41.0682 152.15 39.0227C153.139 36.9659 154.514 35.3636 156.275 34.2159C158.048 33.0568 160.116 32.4773 162.48 32.4773C163.844 32.4773 165.19 32.7045 166.52 33.1591C167.849 33.6136 169.059 34.3523 170.15 35.375C171.241 36.3864 172.111 37.7273 172.758 39.3977C173.406 41.0682 173.73 43.125 173.73 45.5682V47.2727H153.548V43.7955H169.639C169.639 42.3182 169.344 41 168.753 39.8409C168.173 38.6818 167.344 37.767 166.264 37.0966C165.196 36.4261 163.934 36.0909 162.48 36.0909C160.878 36.0909 159.491 36.4886 158.321 37.2841C157.162 38.0682 156.27 39.0909 155.645 40.3523C155.02 41.6136 154.707 42.9659 154.707 44.4091V46.7273C154.707 48.7045 155.048 50.3807 155.73 51.7557C156.423 53.1193 157.383 54.1591 158.611 54.875C159.838 55.5795 161.264 55.9318 162.889 55.9318C163.946 55.9318 164.9 55.7841 165.753 55.4886C166.616 55.1818 167.361 54.7273 167.986 54.125C168.611 53.5114 169.094 52.75 169.434 51.8409L173.321 52.9318C172.912 54.25 172.224 55.4091 171.258 56.4091C170.292 57.3977 169.099 58.1705 167.679 58.7273C166.258 59.2727 164.662 59.5455 162.889 59.5455ZM179.872 59V24.0909H183.895V36.9773H184.236C184.531 36.5227 184.94 35.9432 185.463 35.2386C185.997 34.5227 186.759 33.8864 187.747 33.3295C188.747 32.7614 190.1 32.4773 191.804 32.4773C194.009 32.4773 195.952 33.0284 197.634 34.1307C199.315 35.233 200.628 36.7955 201.571 38.8182C202.514 40.8409 202.986 43.2273 202.986 45.9773C202.986 48.75 202.514 51.1534 201.571 53.1875C200.628 55.2102 199.321 56.7784 197.651 57.892C195.98 58.9943 194.054 59.5455 191.872 59.5455C190.19 59.5455 188.844 59.267 187.832 58.7102C186.821 58.142 186.043 57.5 185.497 56.7841C184.952 56.0568 184.531 55.4545 184.236 54.9773H183.759V59H179.872ZM183.827 45.9091C183.827 47.8864 184.117 49.6307 184.696 51.142C185.276 52.642 186.122 53.8182 187.236 54.6705C188.35 55.5114 189.713 55.9318 191.327 55.9318C193.009 55.9318 194.412 55.4886 195.537 54.6023C196.673 53.7045 197.526 52.5 198.094 50.9886C198.673 49.4659 198.963 47.7727 198.963 45.9091C198.963 44.0682 198.679 42.4091 198.111 40.9318C197.554 39.4432 196.707 38.267 195.571 37.4034C194.446 36.5284 193.031 36.0909 191.327 36.0909C189.69 36.0909 188.315 36.5057 187.202 37.3352C186.088 38.1534 185.247 39.3011 184.679 40.7784C184.111 42.2443 183.827 43.9545 183.827 45.9091ZM237.253 35H233.026C232.776 33.7841 232.338 32.7159 231.713 31.7955C231.1 30.875 230.35 30.1023 229.463 29.4773C228.588 28.8409 227.617 28.3636 226.549 28.0455C225.48 27.7273 224.367 27.5682 223.208 27.5682C221.094 27.5682 219.179 28.1023 217.463 29.1705C215.759 30.2386 214.401 31.8125 213.39 33.892C212.39 35.9716 211.89 38.5227 211.89 41.5455C211.89 44.5682 212.39 47.1193 213.39 49.1989C214.401 51.2784 215.759 52.8523 217.463 53.9205C219.179 54.9886 221.094 55.5227 223.208 55.5227C224.367 55.5227 225.48 55.3636 226.549 55.0455C227.617 54.7273 228.588 54.2557 229.463 53.6307C230.35 52.9943 231.1 52.2159 231.713 51.2955C232.338 50.3636 232.776 49.2955 233.026 48.0909H237.253C236.935 49.875 236.355 51.4716 235.515 52.8807C234.674 54.2898 233.628 55.4886 232.378 56.4773C231.128 57.4545 229.725 58.1989 228.168 58.7102C226.622 59.2216 224.969 59.4773 223.208 59.4773C220.23 59.4773 217.583 58.75 215.265 57.2955C212.946 55.8409 211.122 53.7727 209.793 51.0909C208.463 48.4091 207.799 45.2273 207.799 41.5455C207.799 37.8636 208.463 34.6818 209.793 32C211.122 29.3182 212.946 27.25 215.265 25.7955C217.583 24.3409 220.23 23.6136 223.208 23.6136C224.969 23.6136 226.622 23.8693 228.168 24.3807C229.725 24.892 231.128 25.642 232.378 26.6307C233.628 27.608 234.674 28.8011 235.515 30.2102C236.355 31.608 236.935 33.2045 237.253 35ZM250.721 59.6136C249.062 59.6136 247.556 59.3011 246.204 58.6761C244.851 58.0398 243.778 57.125 242.982 55.9318C242.187 54.7273 241.789 53.2727 241.789 51.5682C241.789 50.0682 242.084 48.8523 242.675 47.9205C243.266 46.9773 244.056 46.2386 245.045 45.7045C246.033 45.1705 247.124 44.7727 248.317 44.5114C249.522 44.2386 250.732 44.0227 251.948 43.8636C253.539 43.6591 254.829 43.5057 255.817 43.4034C256.817 43.2898 257.545 43.1023 257.999 42.8409C258.465 42.5795 258.698 42.125 258.698 41.4773V41.3409C258.698 39.6591 258.238 38.3523 257.317 37.4205C256.408 36.4886 255.028 36.0227 253.175 36.0227C251.255 36.0227 249.749 36.4432 248.658 37.2841C247.567 38.125 246.8 39.0227 246.357 39.9773L242.539 38.6136C243.221 37.0227 244.13 35.7841 245.266 34.8977C246.414 34 247.664 33.375 249.016 33.0227C250.38 32.6591 251.721 32.4773 253.039 32.4773C253.88 32.4773 254.846 32.5795 255.937 32.7841C257.039 32.9773 258.101 33.3807 259.124 33.9943C260.158 34.608 261.016 35.5341 261.698 36.7727C262.38 38.0114 262.721 39.6705 262.721 41.75V59H258.698V55.4545H258.493C258.221 56.0227 257.766 56.6307 257.13 57.2784C256.493 57.9261 255.647 58.4773 254.59 58.9318C253.533 59.3864 252.243 59.6136 250.721 59.6136ZM251.334 56C252.925 56 254.266 55.6875 255.357 55.0625C256.459 54.4375 257.289 53.6307 257.846 52.642C258.414 51.6534 258.698 50.6136 258.698 49.5227V45.8409C258.528 46.0455 258.153 46.233 257.573 46.4034C257.005 46.5625 256.346 46.7045 255.596 46.8295C254.857 46.9432 254.136 47.0455 253.431 47.1364C252.738 47.2159 252.175 47.2841 251.743 47.3409C250.698 47.4773 249.721 47.6989 248.812 48.0057C247.914 48.3011 247.187 48.75 246.63 49.3523C246.084 49.9432 245.812 50.75 245.812 51.7727C245.812 53.1705 246.329 54.2273 247.363 54.9432C248.408 55.6477 249.732 56 251.334 56ZM273.563 24.0909V59H269.541V24.0909H273.563ZM291.386 59.5455C288.863 59.5455 286.687 58.9886 284.858 57.875C283.039 56.75 281.636 55.1818 280.647 53.1705C279.67 51.1477 279.181 48.7955 279.181 46.1136C279.181 43.4318 279.67 41.0682 280.647 39.0227C281.636 36.9659 283.011 35.3636 284.772 34.2159C286.545 33.0568 288.613 32.4773 290.977 32.4773C292.341 32.4773 293.687 32.7045 295.017 33.1591C296.346 33.6136 297.556 34.3523 298.647 35.375C299.738 36.3864 300.608 37.7273 301.255 39.3977C301.903 41.0682 302.227 43.125 302.227 45.5682V47.2727H282.045V43.7955H298.136C298.136 42.3182 297.841 41 297.25 39.8409C296.67 38.6818 295.841 37.767 294.761 37.0966C293.693 36.4261 292.431 36.0909 290.977 36.0909C289.375 36.0909 287.988 36.4886 286.818 37.2841C285.659 38.0682 284.767 39.0909 284.142 40.3523C283.517 41.6136 283.204 42.9659 283.204 44.4091V46.7273C283.204 48.7045 283.545 50.3807 284.227 51.7557C284.92 53.1193 285.88 54.1591 287.108 54.875C288.335 55.5795 289.761 55.9318 291.386 55.9318C292.443 55.9318 293.397 55.7841 294.25 55.4886C295.113 55.1818 295.858 54.7273 296.483 54.125C297.108 53.5114 297.591 52.75 297.931 51.8409L301.818 52.9318C301.409 54.25 300.721 55.4091 299.755 56.4091C298.789 57.3977 297.596 58.1705 296.176 58.7273C294.755 59.2727 293.159 59.5455 291.386 59.5455ZM311.846 43.25V59H307.824V32.8182H311.71V36.9091H312.051C312.665 35.5795 313.596 34.5114 314.846 33.7045C316.096 32.8864 317.71 32.4773 319.687 32.4773C321.46 32.4773 323.011 32.8409 324.341 33.5682C325.67 34.2841 326.704 35.375 327.443 36.8409C328.182 38.2955 328.551 40.1364 328.551 42.3636V59H324.528V42.6364C324.528 40.5795 323.994 38.9773 322.926 37.8295C321.858 36.6705 320.392 36.0909 318.528 36.0909C317.244 36.0909 316.096 36.3693 315.085 36.9261C314.085 37.483 313.295 38.2955 312.716 39.3636C312.136 40.4318 311.846 41.7273 311.846 43.25ZM345.266 59.5455C343.084 59.5455 341.158 58.9943 339.487 57.892C337.817 56.7784 336.51 55.2102 335.567 53.1875C334.624 51.1534 334.152 48.75 334.152 45.9773C334.152 43.2273 334.624 40.8409 335.567 38.8182C336.51 36.7955 337.823 35.233 339.504 34.1307C341.186 33.0284 343.129 32.4773 345.334 32.4773C347.038 32.4773 348.385 32.7614 349.374 33.3295C350.374 33.8864 351.135 34.5227 351.658 35.2386C352.192 35.9432 352.607 36.5227 352.902 36.9773H353.243V24.0909H357.266V59H353.379V54.9773H352.902C352.607 55.4545 352.186 56.0568 351.641 56.7841C351.095 57.5 350.317 58.142 349.306 58.7102C348.294 59.267 346.948 59.5455 345.266 59.5455ZM345.811 55.9318C347.425 55.9318 348.788 55.5114 349.902 54.6705C351.016 53.8182 351.862 52.642 352.442 51.142C353.021 49.6307 353.311 47.8864 353.311 45.9091C353.311 43.9545 353.027 42.2443 352.459 40.7784C351.891 39.3011 351.05 38.1534 349.936 37.3352C348.823 36.5057 347.448 36.0909 345.811 36.0909C344.107 36.0909 342.686 36.5284 341.55 37.4034C340.425 38.267 339.578 39.4432 339.01 40.9318C338.453 42.4091 338.175 44.0682 338.175 45.9091C338.175 47.7727 338.459 49.4659 339.027 50.9886C339.607 52.5 340.459 53.7045 341.584 54.6023C342.72 55.4886 344.129 55.9318 345.811 55.9318ZM372.374 59.6136C370.715 59.6136 369.209 59.3011 367.857 58.6761C366.505 58.0398 365.431 57.125 364.635 55.9318C363.84 54.7273 363.442 53.2727 363.442 51.5682C363.442 50.0682 363.738 48.8523 364.328 47.9205C364.919 46.9773 365.709 46.2386 366.698 45.7045C367.686 45.1705 368.777 44.7727 369.971 44.5114C371.175 44.2386 372.385 44.0227 373.601 43.8636C375.192 43.6591 376.482 43.5057 377.471 43.4034C378.471 43.2898 379.198 43.1023 379.652 42.8409C380.118 42.5795 380.351 42.125 380.351 41.4773V41.3409C380.351 39.6591 379.891 38.3523 378.971 37.4205C378.061 36.4886 376.681 36.0227 374.828 36.0227C372.908 36.0227 371.402 36.4432 370.311 37.2841C369.221 38.125 368.453 39.0227 368.01 39.9773L364.192 38.6136C364.874 37.0227 365.783 35.7841 366.919 34.8977C368.067 34 369.317 33.375 370.669 33.0227C372.033 32.6591 373.374 32.4773 374.692 32.4773C375.533 32.4773 376.499 32.5795 377.59 32.7841C378.692 32.9773 379.755 33.3807 380.777 33.9943C381.811 34.608 382.669 35.5341 383.351 36.7727C384.033 38.0114 384.374 39.6705 384.374 41.75V59H380.351V55.4545H380.147C379.874 56.0227 379.419 56.6307 378.783 57.2784C378.147 57.9261 377.3 58.4773 376.243 58.9318C375.186 59.3864 373.897 59.6136 372.374 59.6136ZM372.988 56C374.578 56 375.919 55.6875 377.01 55.0625C378.113 54.4375 378.942 53.6307 379.499 52.642C380.067 51.6534 380.351 50.6136 380.351 49.5227V45.8409C380.181 46.0455 379.806 46.233 379.226 46.4034C378.658 46.5625 377.999 46.7045 377.249 46.8295C376.51 46.9432 375.789 47.0455 375.084 47.1364C374.391 47.2159 373.828 47.2841 373.397 47.3409C372.351 47.4773 371.374 47.6989 370.465 48.0057C369.567 48.3011 368.84 48.75 368.283 49.3523C367.738 49.9432 367.465 50.75 367.465 51.7727C367.465 53.1705 367.982 54.2273 369.016 54.9432C370.061 55.6477 371.385 56 372.988 56ZM391.194 59V32.8182H395.08V36.7727H395.353C395.83 35.4773 396.694 34.4261 397.944 33.6193C399.194 32.8125 400.603 32.4091 402.171 32.4091C402.467 32.4091 402.836 32.4148 403.279 32.4261C403.722 32.4375 404.057 32.4545 404.285 32.4773V36.5682C404.148 36.5341 403.836 36.483 403.347 36.4148C402.87 36.3352 402.364 36.2955 401.83 36.2955C400.557 36.2955 399.421 36.5625 398.421 37.0966C397.432 37.6193 396.648 38.3466 396.069 39.2784C395.501 40.1989 395.217 41.25 395.217 42.4318V59H391.194Z" fill="#323749"/>
<rect x="21.6274" y="40" width="56.5685" height="56.5685" rx="10.4497" transform="rotate(-45 21.6274 40)" fill="#80D78D"/>
<rect x="-1" y="40" width="56.5685" height="56.5685" rx="10.4497" transform="rotate(-45 -1 40)" fill="#00AE1C"/>
</svg>
